<?xml version="1.0" encoding="UTF-8" standalone="no"?>
<!DOCTYPE svg PUBLIC "-//W3C//DTD SVG 1.1//EN"
 "http://www.w3.org/Graphics/SVG/1.1/DTD/svg11.dtd">
<!-- Generated by graphviz version 2.36.0 (20140111.2315)
 -->
<!-- Title: G Pages: 1 -->
<svg width="430pt" height="288pt"
 viewBox="0.00 0.00 430.05 288.00" xmlns="http://www.w3.org/2000/svg" xmlns:xlink="http://www.w3.org/1999/xlink">
<g id="graph0" class="graph" transform="scale(0.486486 0.486486) rotate(0) translate(4 588)">
<title>G</title>
<polygon fill="white" stroke="none" points="-4,4 -4,-588 880,-588 880,4 -4,4"/>
<g id="clust1" class="cluster"><title>cluster_0</title>
<polygon fill="#ccffcc" stroke="#ccffcc" points="15.713,-8 15.713,-576 860.287,-576 860.287,-8 15.713,-8"/>
<text text-anchor="middle" x="438" y="-560.8" font-family="Times,serif" font-size="14.00">Data</text>
</g>
<g id="clust2" class="cluster"><title>cluster_1</title>
<polygon fill="#99ff99" stroke="#99ff99" points="176.771,-16 176.771,-545 844.574,-545 844.574,-16 176.771,-16"/>
<text text-anchor="middle" x="510.673" y="-529.8" font-family="Times,serif" font-size="14.00">Aeson</text>
</g>
<g id="clust3" class="cluster"><title>cluster_2</title>
<polygon fill="#66ff66" stroke="#66ff66" points="581.381,-323 581.381,-398 805.291,-398 805.291,-323 581.381,-323"/>
<text text-anchor="middle" x="693.336" y="-382.8" font-family="Times,serif" font-size="14.00">Encode</text>
</g>
<g id="clust4" class="cluster"><title>cluster_3</title>
<polygon fill="#66ff66" stroke="#66ff66" points="357.471,-323 357.471,-398 538.17,-398 538.17,-323 357.471,-323"/>
<text text-anchor="middle" x="447.821" y="-382.8" font-family="Times,serif" font-size="14.00">Parser</text>
</g>
<g id="clust5" class="cluster"><title>cluster_4</title>
<polygon fill="#66ff66" stroke="#66ff66" points="192.484,-24 192.484,-315 436.036,-315 436.036,-24 192.484,-24"/>
<text text-anchor="middle" x="314.26" y="-299.8" font-family="Times,serif" font-size="14.00">Types</text>
</g>
<!-- u1 -->
<g id="node1" class="node"><title>u1</title>
<ellipse fill="none" stroke="black" cx="96.6996" cy="-424" rx="33.2209" ry="18"/>
<text text-anchor="middle" x="96.6996" y="-420.3" font-family="Times,serif" font-size="14.00">Aeson</text>
</g>
<!-- u3 -->
<g id="node5" class="node"><title>u3</title>
<ellipse fill="none" stroke="black" cx="514.7" cy="-266" rx="32.2457" ry="18"/>
<text text-anchor="middle" x="514.7" y="-262.3" font-family="Times,serif" font-size="14.00">Types</text>
</g>
<!-- u1&#45;&gt;u3 -->
<g id="edge4" class="edge"><title>u1&#45;&gt;u3</title>
<path fill="none" stroke="black" d="M108.773,-406.804C127.406,-383.284 165.659,-340.57 209.7,-323 257.201,-304.049 390.873,-330.213 439.7,-315 457.911,-309.326 475.991,-297.97 489.835,-287.728"/>
<polygon fill="black" stroke="black" points="492.072,-290.423 497.871,-281.556 487.808,-284.872 492.072,-290.423"/>
</g>
<!-- u2 -->
<g id="node6" class="node"><title>u2</title>
<ellipse fill="none" stroke="black" cx="647.7" cy="-424" rx="37.0701" ry="18"/>
<text text-anchor="middle" x="647.7" y="-420.3" font-family="Times,serif" font-size="14.00">Encode</text>
</g>
<!-- u1&#45;&gt;u2 -->
<g id="edge3" class="edge"><title>u1&#45;&gt;u2</title>
<path fill="none" stroke="black" d="M120.055,-436.908C136.686,-445.335 159.869,-455.568 181.7,-460 323.691,-488.829 363.956,-478.185 507.7,-460 541.848,-455.68 579.592,-445.655 607.276,-437.279"/>
<polygon fill="black" stroke="black" points="608.471,-440.573 616.995,-434.281 606.408,-433.884 608.471,-440.573"/>
</g>
<!-- u9 -->
<g id="node9" class="node"><title>u9</title>
<ellipse fill="none" stroke="black" cx="447.7" cy="-349" rx="38.0212" ry="18"/>
<text text-anchor="middle" x="447.7" y="-345.3" font-family="Times,serif" font-size="14.00">Internal</text>
</g>
<!-- u1&#45;&gt;u9 -->
<g id="edge5" class="edge"><title>u1&#45;&gt;u9</title>
<path fill="none" stroke="black" d="M125.708,-415.182C139.785,-411.73 157.008,-408.007 172.7,-406 198.394,-402.714 382.298,-409.107 405.7,-398 416.313,-392.963 425.343,-383.857 432.279,-374.919"/>
<polygon fill="black" stroke="black" points="435.301,-376.711 438.271,-366.54 429.607,-372.639 435.301,-376.711"/>
</g>
<!-- u11 -->
<g id="node2" class="node"><title>u11</title>
<ellipse fill="none" stroke="black" cx="475.7" cy="-424" rx="32.2457" ry="18"/>
<text text-anchor="middle" x="475.7" y="-420.3" font-family="Times,serif" font-size="14.00">Parser</text>
</g>
<!-- u11&#45;&gt;u9 -->
<g id="edge20" class="edge"><title>u11&#45;&gt;u9</title>
<path fill="none" stroke="black" d="M469.205,-406.069C465.813,-397.224 461.585,-386.202 457.779,-376.277"/>
<polygon fill="black" stroke="black" points="461.008,-374.923 454.158,-366.839 454.472,-377.43 461.008,-374.923"/>
</g>
<!-- u10 -->
<g id="node3" class="node"><title>u10</title>
<ellipse fill="none" stroke="black" cx="510.7" cy="-496" rx="38.0212" ry="18"/>
<text text-anchor="middle" x="510.7" y="-492.3" font-family="Times,serif" font-size="14.00">Generic</text>
</g>
<!-- u5 -->
<g id="node4" class="node"><title>u5</title>
<ellipse fill="none" stroke="black" cx="675.7" cy="-122" rx="45.244" ry="18"/>
<text text-anchor="middle" x="675.7" y="-118.3" font-family="Times,serif" font-size="14.00">Functions</text>
</g>
<!-- u10&#45;&gt;u5 -->
<g id="edge18" class="edge"><title>u10&#45;&gt;u5</title>
<path fill="none" stroke="black" d="M548.817,-494.574C632.863,-491.419 826.7,-471.024 826.7,-350 826.7,-350 826.7,-350 826.7,-265 826.7,-203.855 760.179,-161.321 715.441,-139.63"/>
<polygon fill="black" stroke="black" points="716.796,-136.4 706.257,-135.318 713.821,-142.736 716.796,-136.4"/>
</g>
<!-- u10&#45;&gt;u3 -->
<g id="edge17" class="edge"><title>u10&#45;&gt;u3</title>
<path fill="none" stroke="black" d="M479.082,-485.852C441.448,-473.068 380.35,-445.869 353.7,-398 337.485,-368.876 331.247,-347.638 353.7,-323 366.628,-308.813 421.548,-321.238 439.7,-315 457.618,-308.842 475.57,-297.578 489.416,-287.509"/>
<polygon fill="black" stroke="black" points="491.583,-290.259 497.47,-281.45 487.375,-284.665 491.583,-290.259"/>
</g>
<!-- u10&#45;&gt;u2 -->
<g id="edge16" class="edge"><title>u10&#45;&gt;u2</title>
<path fill="none" stroke="black" d="M535.827,-482.161C557.786,-470.941 589.847,-454.56 614.023,-442.207"/>
<polygon fill="black" stroke="black" points="615.879,-445.189 623.192,-437.522 612.694,-438.955 615.879,-445.189"/>
</g>
<!-- u10&#45;&gt;u9 -->
<g id="edge19" class="edge"><title>u10&#45;&gt;u9</title>
<path fill="none" stroke="black" d="M482.546,-483.575C465.331,-474.939 444.745,-461.253 434.7,-442 424.024,-421.54 429.34,-395.216 436.109,-375.972"/>
<polygon fill="black" stroke="black" points="439.381,-377.212 439.703,-366.622 432.848,-374.7 439.381,-377.212"/>
</g>
<!-- u7 -->
<g id="node11" class="node"><title>u7</title>
<ellipse fill="none" stroke="black" cx="314.7" cy="-50" rx="38.0212" ry="18"/>
<text text-anchor="middle" x="314.7" y="-46.3" font-family="Times,serif" font-size="14.00">Internal</text>
</g>
<!-- u3&#45;&gt;u7 -->
<g id="edge9" class="edge"><title>u3&#45;&gt;u7</title>
<path fill="none" stroke="black" d="M505.745,-248.309C488.424,-217.137 447.773,-149.15 399.7,-104 384.864,-90.0669 365.829,-77.7965 349.534,-68.5804"/>
<polygon fill="black" stroke="black" points="350.759,-65.2606 340.309,-63.5176 347.392,-71.3972 350.759,-65.2606"/>
</g>
<!-- u4 -->
<g id="node13" class="node"><title>u4</title>
<ellipse fill="none" stroke="black" cx="333.7" cy="-194" rx="43.319" ry="18"/>
<text text-anchor="middle" x="333.7" y="-190.3" font-family="Times,serif" font-size="14.00">Instances</text>
</g>
<!-- u3&#45;&gt;u4 -->
<g id="edge8" class="edge"><title>u3&#45;&gt;u4</title>
<path fill="none" stroke="black" d="M488.767,-254.971C458.745,-243.36 408.944,-224.1 373.895,-210.545"/>
<polygon fill="black" stroke="black" points="375.019,-207.227 364.429,-206.884 372.494,-213.756 375.019,-207.227"/>
</g>
<!-- u2&#45;&gt;u3 -->
<g id="edge6" class="edge"><title>u2&#45;&gt;u3</title>
<path fill="none" stroke="black" d="M613.876,-416.632C601.353,-412.903 587.768,-407.068 577.7,-398 550.225,-373.256 557.729,-356.319 541.7,-323 536.977,-313.183 531.781,-302.401 527.219,-292.942"/>
<polygon fill="black" stroke="black" points="530.238,-291.145 522.741,-283.659 523.933,-294.186 530.238,-291.145"/>
</g>
<!-- u8 -->
<g id="node8" class="node"><title>u8</title>
<ellipse fill="none" stroke="black" cx="693.7" cy="-349" rx="48.6179" ry="18"/>
<text text-anchor="middle" x="693.7" y="-345.3" font-family="Times,serif" font-size="14.00">ByteString</text>
</g>
<!-- u2&#45;&gt;u8 -->
<g id="edge7" class="edge"><title>u2&#45;&gt;u8</title>
<path fill="none" stroke="black" d="M658.138,-406.435C663.919,-397.26 671.228,-385.661 677.715,-375.367"/>
<polygon fill="black" stroke="black" points="680.773,-377.078 683.144,-366.752 674.851,-373.346 680.773,-377.078"/>
</g>
<!-- u0 -->
<g id="node7" class="node"><title>u0</title>
<ellipse fill="none" stroke="black" cx="245.7" cy="-349" rx="27" ry="18"/>
<text text-anchor="middle" x="245.7" y="-345.3" font-family="Times,serif" font-size="14.00">TH</text>
</g>
<!-- u0&#45;&gt;u1 -->
<g id="edge1" class="edge"><title>u0&#45;&gt;u1</title>
<path fill="none" stroke="black" d="M239.027,-366.784C233.939,-377.387 225.889,-390.463 214.7,-398 198.939,-408.616 191.307,-402.148 172.7,-406 160.923,-408.438 148.156,-411.234 136.507,-413.845"/>
<polygon fill="black" stroke="black" points="135.596,-410.463 126.612,-416.078 137.137,-417.291 135.596,-410.463"/>
</g>
<!-- u0&#45;&gt;u3 -->
<g id="edge2" class="edge"><title>u0&#45;&gt;u3</title>
<path fill="none" stroke="black" d="M269.189,-339.623C286.077,-333.964 309.511,-326.848 330.7,-323 378.492,-314.32 393.61,-330.339 439.7,-315 457.799,-308.976 475.874,-297.608 489.744,-287.447"/>
<polygon fill="black" stroke="black" points="491.949,-290.167 497.8,-281.335 487.718,-284.591 491.949,-290.167"/>
</g>
<!-- u8&#45;&gt;u3 -->
<g id="edge14" class="edge"><title>u8&#45;&gt;u3</title>
<path fill="none" stroke="black" d="M665.148,-334.388C657.246,-330.66 648.654,-326.643 640.7,-323 609.629,-308.77 574.028,-292.995 548.611,-281.825"/>
<polygon fill="black" stroke="black" points="549.963,-278.596 539.4,-277.782 547.15,-285.006 549.963,-278.596"/>
</g>
<!-- u9&#45;&gt;u3 -->
<g id="edge15" class="edge"><title>u9&#45;&gt;u3</title>
<path fill="none" stroke="black" d="M460.937,-331.997C470.727,-320.161 484.216,-303.854 495.233,-290.534"/>
<polygon fill="black" stroke="black" points="498.041,-292.631 501.718,-282.694 492.647,-288.169 498.041,-292.631"/>
</g>
<!-- u12 -->
<g id="node10" class="node"><title>u12</title>
<ellipse fill="none" stroke="black" cx="308.7" cy="-266" rx="38.0212" ry="18"/>
<text text-anchor="middle" x="308.7" y="-262.3" font-family="Times,serif" font-size="14.00">Generic</text>
</g>
<!-- u12&#45;&gt;u7 -->
<g id="edge22" class="edge"><title>u12&#45;&gt;u7</title>
<path fill="none" stroke="black" d="M297.393,-248.664C291.125,-238.593 283.955,-225.131 280.7,-212 268.987,-164.758 287.924,-109.086 301.902,-77.1302"/>
<polygon fill="black" stroke="black" points="305.096,-78.5624 306.042,-68.0098 298.722,-75.6693 305.096,-78.5624"/>
</g>
<!-- u12&#45;&gt;u4 -->
<g id="edge21" class="edge"><title>u12&#45;&gt;u4</title>
<path fill="none" stroke="black" d="M314.751,-248.055C317.565,-240.176 320.979,-230.617 324.13,-221.794"/>
<polygon fill="black" stroke="black" points="327.462,-222.87 327.53,-212.275 320.87,-220.516 327.462,-222.87"/>
</g>
<!-- u6 -->
<g id="node12" class="node"><title>u6</title>
<ellipse fill="none" stroke="black" cx="361.7" cy="-122" rx="29.3479" ry="18"/>
<text text-anchor="middle" x="361.7" y="-118.3" font-family="Times,serif" font-size="14.00">Class</text>
</g>
<!-- u6&#45;&gt;u7 -->
<g id="edge13" class="edge"><title>u6&#45;&gt;u7</title>
<path fill="none" stroke="black" d="M351.035,-105.116C345.228,-96.4685 337.914,-85.5754 331.373,-75.833"/>
<polygon fill="black" stroke="black" points="334.129,-73.6582 325.649,-67.307 328.317,-77.5603 334.129,-73.6582"/>
</g>
<!-- u4&#45;&gt;u5 -->
<g id="edge10" class="edge"><title>u4&#45;&gt;u5</title>
<path fill="none" stroke="black" d="M364.305,-181.087C369.717,-179.223 375.336,-177.441 380.7,-176 464.137,-153.588 563.432,-137.954 622.919,-129.733"/>
<polygon fill="black" stroke="black" points="623.756,-133.151 633.191,-128.332 622.81,-126.215 623.756,-133.151"/>
</g>
<!-- u4&#45;&gt;u7 -->
<g id="edge12" class="edge"><title>u4&#45;&gt;u7</title>
<path fill="none" stroke="black" d="M329.63,-175.904C327.299,-165.563 324.491,-152.085 322.7,-140 319.648,-119.412 317.598,-95.9608 316.337,-78.3009"/>
<polygon fill="black" stroke="black" points="319.817,-77.8732 315.653,-68.1309 312.833,-78.3434 319.817,-77.8732"/>
</g>
<!-- u4&#45;&gt;u6 -->
<g id="edge11" class="edge"><title>u4&#45;&gt;u6</title>
<path fill="none" stroke="black" d="M340.478,-176.055C343.711,-167.973 347.651,-158.121 351.255,-149.112"/>
<polygon fill="black" stroke="black" points="354.52,-150.374 354.984,-139.789 348.02,-147.774 354.52,-150.374"/>
</g>
</g>
</svg>
