<?xml version="1.0" encoding="UTF-8" standalone="no"?>
<!DOCTYPE svg PUBLIC "-//W3C//DTD SVG 1.1//EN"
 "http://www.w3.org/Graphics/SVG/1.1/DTD/svg11.dtd">
<!-- Generated by graphviz version 2.36.0 (20140111.2315)
 -->
<!-- Title: G Pages: 1 -->
<svg width="432pt" height="283pt"
 viewBox="0.00 0.00 432.00 283.13" xmlns="http://www.w3.org/2000/svg" xmlns:xlink="http://www.w3.org/1999/xlink">
<g id="graph0" class="graph" transform="scale(0.177995 0.177995) rotate(0) translate(4 1586.67)">
<title>G</title>
<polygon fill="white" stroke="none" points="-4,4 -4,-1586.67 2423.04,-1586.67 2423.04,4 -4,4"/>
<!-- u0 -->
<g id="node1" class="node"><title>u0</title>
<ellipse fill="#ccffcc" stroke="black" cx="489.039" cy="-21" rx="36.096" ry="18"/>
<text text-anchor="middle" x="489.039" y="-17.3" font-family="Times,serif" font-size="14.00">GitRev</text>
</g>
<!-- u33 -->
<g id="node2" class="node"><title>u33</title>
<ellipse fill="#99ff99" stroke="black" cx="547.039" cy="-1561" rx="74.1402" ry="18"/>
<text text-anchor="middle" x="547.039" y="-1557.3" font-family="Times,serif" font-size="14.00">Cryptol.Symbolic</text>
</g>
<!-- u31 -->
<g id="node4" class="node"><title>u31</title>
<ellipse fill="#99ff99" stroke="black" cx="905.039" cy="-1476" rx="94.3628" ry="18"/>
<text text-anchor="middle" x="905.039" y="-1472.3" font-family="Times,serif" font-size="14.00">Cryptol.ModuleSystem</text>
</g>
<!-- u33&#45;&gt;u31 -->
<g id="edge46" class="edge"><title>u33&#45;&gt;u31</title>
<path fill="none" stroke="black" d="M598.713,-1548.02C661.647,-1533.43 768.12,-1508.74 837.494,-1492.66"/>
<polygon fill="black" stroke="black" points="838.5,-1496.02 847.451,-1490.35 836.919,-1489.2 838.5,-1496.02"/>
</g>
<!-- u36 -->
<g id="node32" class="node"><title>u36</title>
<ellipse fill="#669999" stroke="black" cx="204.039" cy="-791" rx="97.237" ry="18"/>
<text text-anchor="middle" x="204.039" y="-787.3" font-family="Times,serif" font-size="14.00">Cryptol.Symbolic.Prims</text>
</g>
<!-- u33&#45;&gt;u36 -->
<g id="edge47" class="edge"><title>u33&#45;&gt;u36</title>
<path fill="none" stroke="black" d="M482.16,-1552.3C394.222,-1537.83 248.039,-1497.73 248.039,-1391 248.039,-1391 248.039,-1391 248.039,-961 248.039,-909.345 228.55,-851.591 215.513,-818.736"/>
<polygon fill="black" stroke="black" points="218.714,-817.316 211.703,-809.373 212.23,-819.954 218.714,-817.316"/>
</g>
<!-- u32 -->
<g id="node3" class="node"><title>u32</title>
<ellipse fill="#99ff99" stroke="black" cx="1477.04" cy="-1134" rx="80.389" ry="18"/>
<text text-anchor="middle" x="1477.04" y="-1130.3" font-family="Times,serif" font-size="14.00">Cryptol.TypeCheck</text>
</g>
<!-- u42 -->
<g id="node47" class="node"><title>u42</title>
<ellipse fill="#99cccc" stroke="black" cx="1619.04" cy="-1048" rx="100.137" ry="18"/>
<text text-anchor="middle" x="1619.04" y="-1044.3" font-family="Times,serif" font-size="14.00">Cryptol.TypeCheck.Infer</text>
</g>
<!-- u32&#45;&gt;u42 -->
<g id="edge45" class="edge"><title>u32&#45;&gt;u42</title>
<path fill="none" stroke="black" d="M1504.08,-1117C1526.3,-1103.86 1557.98,-1085.12 1582.46,-1070.64"/>
<polygon fill="black" stroke="black" points="1584.3,-1073.62 1591.13,-1065.51 1580.74,-1067.59 1584.3,-1073.62"/>
</g>
<!-- u9 -->
<g id="node15" class="node"><title>u9</title>
<ellipse fill="#99cc99" stroke="black" cx="1055.04" cy="-1390" rx="113.61" ry="18"/>
<text text-anchor="middle" x="1055.04" y="-1386.3" font-family="Times,serif" font-size="14.00">Cryptol.ModuleSystem.Base</text>
</g>
<!-- u31&#45;&gt;u9 -->
<g id="edge44" class="edge"><title>u31&#45;&gt;u9</title>
<path fill="none" stroke="black" d="M933.96,-1458.8C957.568,-1445.58 991.121,-1426.79 1016.92,-1412.35"/>
<polygon fill="black" stroke="black" points="1018.68,-1415.37 1025.69,-1407.43 1015.26,-1409.27 1018.68,-1415.37"/>
</g>
<!-- u17 -->
<g id="node5" class="node"><title>u17</title>
<ellipse fill="#99ff99" stroke="black" cx="489.039" cy="-107" rx="67.3907" ry="18"/>
<text text-anchor="middle" x="489.039" y="-103.3" font-family="Times,serif" font-size="14.00">Cryptol.Version</text>
</g>
<!-- u17&#45;&gt;u0 -->
<g id="edge24" class="edge"><title>u17&#45;&gt;u0</title>
<path fill="none" stroke="black" d="M489.039,-88.5951C489.039,-77.2572 489.039,-62.2271 489.039,-49.3153"/>
<polygon fill="black" stroke="black" points="492.539,-49.0951 489.039,-39.0952 485.539,-49.0952 492.539,-49.0951"/>
</g>
<!-- u16 -->
<g id="node6" class="node"><title>u16</title>
<ellipse fill="#99ff99" stroke="black" cx="721.039" cy="-1134" rx="55.3436" ry="18"/>
<text text-anchor="middle" x="721.039" y="-1130.3" font-family="Times,serif" font-size="14.00">Cryptol.Eval</text>
</g>
<!-- u2 -->
<g id="node28" class="node"><title>u2</title>
<ellipse fill="#669966" stroke="black" cx="475.039" cy="-706" rx="78.9404" ry="18"/>
<text text-anchor="middle" x="475.039" y="-702.3" font-family="Times,serif" font-size="14.00">Cryptol.Prims.Eval</text>
</g>
<!-- u16&#45;&gt;u2 -->
<g id="edge23" class="edge"><title>u16&#45;&gt;u2</title>
<path fill="none" stroke="black" d="M701.552,-1116.9C670.2,-1089.05 612.039,-1028.56 612.039,-963 612.039,-963 612.039,-963 612.039,-876 612.039,-811.118 550.352,-757.215 509.765,-728.771"/>
<polygon fill="black" stroke="black" points="511.685,-725.844 501.454,-723.093 507.736,-731.624 511.685,-725.844"/>
</g>
<!-- u21 -->
<g id="node7" class="node"><title>u21</title>
<ellipse fill="#66ff66" stroke="black" cx="564.039" cy="-535" rx="72.192" ry="18"/>
<text text-anchor="middle" x="564.039" y="-531.3" font-family="Times,serif" font-size="14.00">Cryptol.Eval.Env</text>
</g>
<!-- u19 -->
<g id="node9" class="node"><title>u19</title>
<ellipse fill="#66ff66" stroke="black" cx="873.039" cy="-449" rx="78.9404" ry="18"/>
<text text-anchor="middle" x="873.039" y="-445.3" font-family="Times,serif" font-size="14.00">Cryptol.Eval.Value</text>
</g>
<!-- u21&#45;&gt;u19 -->
<g id="edge29" class="edge"><title>u21&#45;&gt;u19</title>
<path fill="none" stroke="black" d="M610.969,-521.242C665.472,-506.426 755.431,-481.971 814.467,-465.922"/>
<polygon fill="black" stroke="black" points="815.658,-469.226 824.39,-463.225 813.822,-462.471 815.658,-469.226"/>
</g>
<!-- u20 -->
<g id="node8" class="node"><title>u20</title>
<ellipse fill="#66ff66" stroke="black" cx="434.039" cy="-620" rx="76.5394" ry="18"/>
<text text-anchor="middle" x="434.039" y="-616.3" font-family="Times,serif" font-size="14.00">Cryptol.Eval.Type</text>
</g>
<!-- u20&#45;&gt;u21 -->
<g id="edge28" class="edge"><title>u20&#45;&gt;u21</title>
<path fill="none" stroke="black" d="M459.104,-602.997C479.426,-590.022 508.252,-571.618 530.551,-557.381"/>
<polygon fill="black" stroke="black" points="532.505,-560.286 539.05,-551.954 528.738,-554.385 532.505,-560.286"/>
</g>
<!-- u18 -->
<g id="node10" class="node"><title>u18</title>
<ellipse fill="#66ff66" stroke="black" cx="875.039" cy="-364" rx="77.0154" ry="18"/>
<text text-anchor="middle" x="875.039" y="-360.3" font-family="Times,serif" font-size="14.00">Cryptol.Eval.Error</text>
</g>
<!-- u19&#45;&gt;u18 -->
<g id="edge26" class="edge"><title>u19&#45;&gt;u18</title>
<path fill="none" stroke="black" d="M873.453,-430.802C873.721,-419.674 874.076,-404.945 874.382,-392.244"/>
<polygon fill="black" stroke="black" points="877.883,-392.257 874.625,-382.176 870.885,-392.088 877.883,-392.257"/>
</g>
<!-- u47 -->
<g id="node59" class="node"><title>u47</title>
<ellipse fill="#99ffff" stroke="black" cx="648.039" cy="-364" rx="130.933" ry="18"/>
<text text-anchor="middle" x="648.039" y="-360.3" font-family="Times,serif" font-size="14.00">Cryptol.TypeCheck.Solver.InfNat</text>
</g>
<!-- u19&#45;&gt;u47 -->
<g id="edge27" class="edge"><title>u19&#45;&gt;u47</title>
<path fill="none" stroke="black" d="M833.331,-433.352C796.541,-419.781 741.549,-399.495 701.025,-384.546"/>
<polygon fill="black" stroke="black" points="702.168,-381.237 691.574,-381.06 699.745,-387.804 702.168,-381.237"/>
</g>
<!-- u44 -->
<g id="node45" class="node"><title>u44</title>
<ellipse fill="#99cccc" stroke="black" cx="1182.04" cy="-278" rx="99.1619" ry="18"/>
<text text-anchor="middle" x="1182.04" y="-274.3" font-family="Times,serif" font-size="14.00">Cryptol.TypeCheck.AST</text>
</g>
<!-- u18&#45;&gt;u44 -->
<g id="edge25" class="edge"><title>u18&#45;&gt;u44</title>
<path fill="none" stroke="black" d="M923.008,-349.875C976.014,-335.372 1061.56,-311.965 1119.72,-296.052"/>
<polygon fill="black" stroke="black" points="1120.8,-299.384 1129.53,-293.369 1118.96,-292.632 1120.8,-299.384"/>
</g>
<!-- u13 -->
<g id="node11" class="node"><title>u13</title>
<ellipse fill="#99cc99" stroke="black" cx="1196.04" cy="-1219" rx="110.235" ry="18"/>
<text text-anchor="middle" x="1196.04" y="-1215.3" font-family="Times,serif" font-size="14.00">Cryptol.ModuleSystem.Env</text>
</g>
<!-- u13&#45;&gt;u32 -->
<g id="edge20" class="edge"><title>u13&#45;&gt;u32</title>
<path fill="none" stroke="black" d="M1246.93,-1202.97C1295.86,-1188.52 1369.67,-1166.71 1420.43,-1151.72"/>
<polygon fill="black" stroke="black" points="1421.67,-1155.01 1430.27,-1148.82 1419.68,-1148.29 1421.67,-1155.01"/>
</g>
<!-- u13&#45;&gt;u16 -->
<g id="edge19" class="edge"><title>u13&#45;&gt;u16</title>
<path fill="none" stroke="black" d="M1123.64,-1205.35C1029.08,-1188.83 865.423,-1160.23 778.753,-1145.08"/>
<polygon fill="black" stroke="black" points="779.283,-1141.62 768.83,-1143.35 778.078,-1148.52 779.283,-1141.62"/>
</g>
<!-- u10 -->
<g id="node14" class="node"><title>u10</title>
<ellipse fill="#99cc99" stroke="black" cx="1922.04" cy="-1134" rx="139.606" ry="18"/>
<text text-anchor="middle" x="1922.04" y="-1130.3" font-family="Times,serif" font-size="14.00">Cryptol.ModuleSystem.NamingEnv</text>
</g>
<!-- u13&#45;&gt;u10 -->
<g id="edge18" class="edge"><title>u13&#45;&gt;u10</title>
<path fill="none" stroke="black" d="M1283.61,-1207.99C1415.83,-1192.87 1666.32,-1164.24 1811.11,-1147.68"/>
<polygon fill="black" stroke="black" points="1811.81,-1151.12 1821.35,-1146.51 1811.02,-1144.17 1811.81,-1151.12"/>
</g>
<!-- u12 -->
<g id="node12" class="node"><title>u12</title>
<ellipse fill="#99cc99" stroke="black" cx="1986.04" cy="-1048" rx="128.058" ry="18"/>
<text text-anchor="middle" x="1986.04" y="-1044.3" font-family="Times,serif" font-size="14.00">Cryptol.ModuleSystem.Interface</text>
</g>
<!-- u12&#45;&gt;u44 -->
<g id="edge17" class="edge"><title>u12&#45;&gt;u44</title>
<path fill="none" stroke="black" d="M2064.69,-1033.66C2099.55,-1024.07 2138.57,-1007.72 2165.04,-980 2204.06,-939.132 2179.73,-910.006 2204.04,-859 2257.33,-747.186 2349.04,-744.863 2349.04,-621 2349.04,-621 2349.04,-621 2349.04,-448 2349.04,-341.34 1575.64,-296.339 1288.06,-283.293"/>
<polygon fill="black" stroke="black" points="1288.18,-279.795 1278.04,-282.842 1287.87,-286.788 1288.18,-279.795"/>
</g>
<!-- u11 -->
<g id="node13" class="node"><title>u11</title>
<ellipse fill="#99cc99" stroke="black" cx="1688.04" cy="-1219" rx="128.533" ry="18"/>
<text text-anchor="middle" x="1688.04" y="-1215.3" font-family="Times,serif" font-size="14.00">Cryptol.ModuleSystem.Renamer</text>
</g>
<!-- u11&#45;&gt;u10 -->
<g id="edge16" class="edge"><title>u11&#45;&gt;u10</title>
<path fill="none" stroke="black" d="M1732.88,-1202.09C1771.09,-1188.54 1826.14,-1169.01 1867.01,-1154.52"/>
<polygon fill="black" stroke="black" points="1868.3,-1157.78 1876.55,-1151.13 1865.96,-1151.18 1868.3,-1157.78"/>
</g>
<!-- u10&#45;&gt;u12 -->
<g id="edge14" class="edge"><title>u10&#45;&gt;u12</title>
<path fill="none" stroke="black" d="M1934.99,-1116C1944.19,-1103.93 1956.68,-1087.53 1967.01,-1073.98"/>
<polygon fill="black" stroke="black" points="1969.83,-1076.05 1973.11,-1065.97 1964.26,-1071.81 1969.83,-1076.05"/>
</g>
<!-- u29 -->
<g id="node18" class="node"><title>u29</title>
<ellipse fill="#66cc66" stroke="black" cx="2302.04" cy="-877" rx="89.0632" ry="18"/>
<text text-anchor="middle" x="2302.04" y="-873.3" font-family="Times,serif" font-size="14.00">Cryptol.Parser.Names</text>
</g>
<!-- u10&#45;&gt;u29 -->
<g id="edge15" class="edge"><title>u10&#45;&gt;u29</title>
<path fill="none" stroke="black" d="M1992.73,-1118.43C2033.04,-1107.99 2083.29,-1091.24 2123.04,-1066 2193.39,-1021.32 2255.51,-943.085 2284.58,-903.092"/>
<polygon fill="black" stroke="black" points="2287.45,-905.099 2290.43,-894.934 2281.76,-901.017 2287.45,-905.099"/>
</g>
<!-- u8 -->
<g id="node16" class="node"><title>u8</title>
<ellipse fill="#99cc99" stroke="black" cx="1055.04" cy="-1305" rx="122.284" ry="18"/>
<text text-anchor="middle" x="1055.04" y="-1301.3" font-family="Times,serif" font-size="14.00">Cryptol.ModuleSystem.Monad</text>
</g>
<!-- u9&#45;&gt;u8 -->
<g id="edge12" class="edge"><title>u9&#45;&gt;u8</title>
<path fill="none" stroke="black" d="M1055.04,-1371.8C1055.04,-1360.67 1055.04,-1345.94 1055.04,-1333.24"/>
<polygon fill="black" stroke="black" points="1058.54,-1333.18 1055.04,-1323.18 1051.54,-1333.18 1058.54,-1333.18"/>
</g>
<!-- u14 -->
<g id="node36" class="node"><title>u14</title>
<ellipse fill="#66ffff" stroke="black" cx="1870.04" cy="-1305" rx="126.133" ry="18"/>
<text text-anchor="middle" x="1870.04" y="-1301.3" font-family="Times,serif" font-size="14.00">Cryptol.Transform.MonoValues</text>
</g>
<!-- u9&#45;&gt;u14 -->
<g id="edge13" class="edge"><title>u9&#45;&gt;u14</title>
<path fill="none" stroke="black" d="M1147.74,-1379.56C1299.24,-1364.13 1599.2,-1333.58 1760.8,-1317.12"/>
<polygon fill="black" stroke="black" points="1761.17,-1320.61 1770.77,-1316.11 1760.46,-1313.64 1761.17,-1320.61"/>
</g>
<!-- u8&#45;&gt;u13 -->
<g id="edge9" class="edge"><title>u8&#45;&gt;u13</title>
<path fill="none" stroke="black" d="M1082.9,-1287.4C1104.81,-1274.35 1135.54,-1256.04 1159.45,-1241.8"/>
<polygon fill="black" stroke="black" points="1161.44,-1244.69 1168.24,-1236.56 1157.86,-1238.67 1161.44,-1244.69"/>
</g>
<!-- u8&#45;&gt;u11 -->
<g id="edge8" class="edge"><title>u8&#45;&gt;u11</title>
<path fill="none" stroke="black" d="M1142.39,-1292.41C1259.09,-1276.92 1465.36,-1249.55 1588.12,-1233.26"/>
<polygon fill="black" stroke="black" points="1588.81,-1236.7 1598.27,-1231.91 1587.89,-1229.76 1588.81,-1236.7"/>
</g>
<!-- u28 -->
<g id="node19" class="node"><title>u28</title>
<ellipse fill="#66cc66" stroke="black" cx="329.039" cy="-449" rx="101.087" ry="18"/>
<text text-anchor="middle" x="329.039" y="-445.3" font-family="Times,serif" font-size="14.00">Cryptol.Parser.NoInclude</text>
</g>
<!-- u8&#45;&gt;u28 -->
<g id="edge11" class="edge"><title>u8&#45;&gt;u28</title>
<path fill="none" stroke="black" d="M936.373,-1300.66C730.53,-1291.62 329.039,-1258.18 329.039,-1135 329.039,-1135 329.039,-1135 329.039,-619 329.039,-569.179 329.039,-511.096 329.039,-477.631"/>
<polygon fill="black" stroke="black" points="332.539,-477.273 329.039,-467.273 325.539,-477.274 332.539,-477.273"/>
</g>
<!-- u26 -->
<g id="node21" class="node"><title>u26</title>
<ellipse fill="#66cc66" stroke="black" cx="978.039" cy="-278" rx="86.1637" ry="18"/>
<text text-anchor="middle" x="978.039" y="-274.3" font-family="Times,serif" font-size="14.00">Cryptol.Parser.NoPat</text>
</g>
<!-- u8&#45;&gt;u26 -->
<g id="edge10" class="edge"><title>u8&#45;&gt;u26</title>
<path fill="none" stroke="black" d="M1027.04,-1287.4C986.189,-1260.81 915.039,-1204.53 915.039,-1135 915.039,-1135 915.039,-1135 915.039,-619 915.039,-572.887 918.676,-560.479 934.039,-517 942.453,-493.188 953.753,-491.181 961.039,-467 977.733,-411.595 979.486,-343.182 978.966,-306.063"/>
<polygon fill="black" stroke="black" points="982.465,-305.954 978.758,-296.028 975.466,-306.099 982.465,-305.954"/>
</g>
<!-- u30 -->
<g id="node17" class="node"><title>u30</title>
<ellipse fill="#66cc66" stroke="black" cx="775.039" cy="-278" rx="81.3646" ry="18"/>
<text text-anchor="middle" x="775.039" y="-274.3" font-family="Times,serif" font-size="14.00">Cryptol.Parser.Utils</text>
</g>
<!-- u25 -->
<g id="node22" class="node"><title>u25</title>
<ellipse fill="#66cc66" stroke="black" cx="983.039" cy="-192" rx="81.3646" ry="18"/>
<text text-anchor="middle" x="983.039" y="-188.3" font-family="Times,serif" font-size="14.00">Cryptol.Parser.AST</text>
</g>
<!-- u30&#45;&gt;u25 -->
<g id="edge43" class="edge"><title>u30&#45;&gt;u25</title>
<path fill="none" stroke="black" d="M812.225,-261.982C846.872,-247.99 898.676,-227.07 936.145,-211.938"/>
<polygon fill="black" stroke="black" points="937.863,-215.019 945.824,-208.029 935.241,-208.528 937.863,-215.019"/>
</g>
<!-- u29&#45;&gt;u25 -->
<g id="edge42" class="edge"><title>u29&#45;&gt;u25</title>
<path fill="none" stroke="black" d="M2317.24,-859.171C2341.68,-830.282 2387.04,-768.415 2387.04,-707 2387.04,-707 2387.04,-707 2387.04,-363 2387.04,-216.565 1223.01,-230.616 1078.04,-210 1069.75,-208.822 1061.08,-207.456 1052.49,-206.021"/>
<polygon fill="black" stroke="black" points="1052.93,-202.544 1042.48,-204.311 1051.75,-209.444 1052.93,-202.544"/>
</g>
<!-- u27 -->
<g id="node20" class="node"><title>u27</title>
<ellipse fill="#66cc66" stroke="black" cx="135.039" cy="-364" rx="102.061" ry="18"/>
<text text-anchor="middle" x="135.039" y="-360.3" font-family="Times,serif" font-size="14.00">Cryptol.Parser.LexerUtils</text>
</g>
<!-- u28&#45;&gt;u27 -->
<g id="edge41" class="edge"><title>u28&#45;&gt;u27</title>
<path fill="none" stroke="black" d="M292.092,-432.193C260.639,-418.736 215.298,-399.338 181.411,-384.84"/>
<polygon fill="black" stroke="black" points="182.748,-381.605 172.178,-380.889 179.995,-388.041 182.748,-381.605"/>
</g>
<!-- u22 -->
<g id="node25" class="node"><title>u22</title>
<ellipse fill="#66cc66" stroke="black" cx="358.039" cy="-364" rx="103.012" ry="18"/>
<text text-anchor="middle" x="358.039" y="-360.3" font-family="Times,serif" font-size="14.00">Cryptol.Parser.ParserUtils</text>
</g>
<!-- u28&#45;&gt;u22 -->
<g id="edge40" class="edge"><title>u28&#45;&gt;u22</title>
<path fill="none" stroke="black" d="M335.048,-430.802C338.975,-419.562 344.185,-404.65 348.653,-391.863"/>
<polygon fill="black" stroke="black" points="352.043,-392.77 352.038,-382.176 345.435,-390.462 352.043,-392.77"/>
</g>
<!-- u24 -->
<g id="node23" class="node"><title>u24</title>
<ellipse fill="#66cc66" stroke="black" cx="860.039" cy="-107" rx="92.413" ry="18"/>
<text text-anchor="middle" x="860.039" y="-103.3" font-family="Times,serif" font-size="14.00">Cryptol.Parser.Position</text>
</g>
<!-- u27&#45;&gt;u24 -->
<g id="edge39" class="edge"><title>u27&#45;&gt;u24</title>
<path fill="none" stroke="black" d="M89.3101,-347.863C41.7946,-329.707 -21.7749,-297.043 8.03878,-260 114.216,-128.075 590.615,-150.436 758.039,-125 766.203,-123.76 774.727,-122.416 783.217,-121.047"/>
<polygon fill="black" stroke="black" points="783.837,-124.492 793.145,-119.431 782.713,-117.583 783.837,-124.492"/>
</g>
<!-- u23 -->
<g id="node24" class="node"><title>u23</title>
<ellipse fill="#66cc66" stroke="black" cx="340.039" cy="-278" rx="82.3139" ry="18"/>
<text text-anchor="middle" x="340.039" y="-274.3" font-family="Times,serif" font-size="14.00">Cryptol.Parser.Unlit</text>
</g>
<!-- u27&#45;&gt;u23 -->
<g id="edge38" class="edge"><title>u27&#45;&gt;u23</title>
<path fill="none" stroke="black" d="M173.598,-347.2C207.668,-333.24 257.431,-312.849 293.665,-298.002"/>
<polygon fill="black" stroke="black" points="295.107,-301.193 303.034,-294.163 292.453,-294.716 295.107,-301.193"/>
</g>
<!-- u26&#45;&gt;u25 -->
<g id="edge37" class="edge"><title>u26&#45;&gt;u25</title>
<path fill="none" stroke="black" d="M979.075,-259.595C979.75,-248.257 980.644,-233.227 981.413,-220.315"/>
<polygon fill="black" stroke="black" points="984.921,-220.285 982.021,-210.095 977.933,-219.869 984.921,-220.285"/>
</g>
<!-- u7 -->
<g id="node62" class="node"><title>u7</title>
<ellipse fill="#ccffff" stroke="black" cx="489.039" cy="-192" rx="78.9404" ry="18"/>
<text text-anchor="middle" x="489.039" y="-188.3" font-family="Times,serif" font-size="14.00">Cryptol.Utils.Panic</text>
</g>
<!-- u26&#45;&gt;u7 -->
<g id="edge36" class="edge"><title>u26&#45;&gt;u7</title>
<path fill="none" stroke="black" d="M913.859,-265.975C822.482,-250.279 655.444,-221.585 560.321,-205.245"/>
<polygon fill="black" stroke="black" points="560.664,-201.753 550.216,-203.509 559.479,-208.652 560.664,-201.753"/>
</g>
<!-- u25&#45;&gt;u24 -->
<g id="edge35" class="edge"><title>u25&#45;&gt;u24</title>
<path fill="none" stroke="black" d="M959.031,-174.8C940.19,-162.086 913.756,-144.248 892.943,-130.204"/>
<polygon fill="black" stroke="black" points="894.653,-127.135 884.406,-124.443 890.738,-132.938 894.653,-127.135"/>
</g>
<!-- u1 -->
<g id="node29" class="node"><title>u1</title>
<ellipse fill="#669966" stroke="black" cx="1059.04" cy="-107" rx="87.613" ry="18"/>
<text text-anchor="middle" x="1059.04" y="-103.3" font-family="Times,serif" font-size="14.00">Cryptol.Prims.Syntax</text>
</g>
<!-- u25&#45;&gt;u1 -->
<g id="edge34" class="edge"><title>u25&#45;&gt;u1</title>
<path fill="none" stroke="black" d="M998.419,-174.204C1009.44,-162.166 1024.46,-145.769 1036.78,-132.305"/>
<polygon fill="black" stroke="black" points="1039.51,-134.51 1043.68,-124.771 1034.35,-129.783 1039.51,-134.51"/>
</g>
<!-- u5 -->
<g id="node64" class="node"><title>u5</title>
<ellipse fill="#ccffff" stroke="black" cx="959.039" cy="-21" rx="69.3156" ry="18"/>
<text text-anchor="middle" x="959.039" y="-17.3" font-family="Times,serif" font-size="14.00">Cryptol.Utils.PP</text>
</g>
<!-- u24&#45;&gt;u5 -->
<g id="edge33" class="edge"><title>u24&#45;&gt;u5</title>
<path fill="none" stroke="black" d="M879.598,-89.4043C894.513,-76.7488 915.238,-59.1641 931.78,-45.1289"/>
<polygon fill="black" stroke="black" points="934.16,-47.6998 939.52,-38.5612 929.631,-42.3622 934.16,-47.6998"/>
</g>
<!-- u23&#45;&gt;u7 -->
<g id="edge32" class="edge"><title>u23&#45;&gt;u7</title>
<path fill="none" stroke="black" d="M368.415,-261.003C392.132,-247.632 426.13,-228.466 451.99,-213.886"/>
<polygon fill="black" stroke="black" points="453.776,-216.898 460.768,-208.938 450.338,-210.8 453.776,-216.898"/>
</g>
<!-- u22&#45;&gt;u30 -->
<g id="edge31" class="edge"><title>u22&#45;&gt;u30</title>
<path fill="none" stroke="black" d="M422.738,-349.967C499.912,-334.421 628.335,-308.552 706.968,-292.712"/>
<polygon fill="black" stroke="black" points="708.137,-296.047 717.249,-290.641 706.755,-289.185 708.137,-296.047"/>
</g>
<!-- u22&#45;&gt;u7 -->
<g id="edge30" class="edge"><title>u22&#45;&gt;u7</title>
<path fill="none" stroke="black" d="M379.544,-346.36C395.059,-333.66 415.859,-315.139 431.039,-296 450.06,-272.017 466.606,-241.016 477.103,-219.316"/>
<polygon fill="black" stroke="black" points="480.37,-220.594 481.488,-210.059 474.044,-217.598 480.37,-220.594"/>
</g>
<!-- u4 -->
<g id="node26" class="node"><title>u4</title>
<ellipse fill="#669966" stroke="black" cx="1317.04" cy="-364" rx="85.2138" ry="18"/>
<text text-anchor="middle" x="1317.04" y="-360.3" font-family="Times,serif" font-size="14.00">Cryptol.Prims.Types</text>
</g>
<!-- u4&#45;&gt;u44 -->
<g id="edge5" class="edge"><title>u4&#45;&gt;u44</title>
<path fill="none" stroke="black" d="M1291.01,-346.804C1269.95,-333.699 1240.09,-315.122 1216.95,-300.726"/>
<polygon fill="black" stroke="black" points="1218.79,-297.744 1208.45,-295.433 1215.09,-303.688 1218.79,-297.744"/>
</g>
<!-- u3 -->
<g id="node27" class="node"><title>u3</title>
<ellipse fill="#669966" stroke="black" cx="1452.04" cy="-449" rx="77.4897" ry="18"/>
<text text-anchor="middle" x="1452.04" y="-445.3" font-family="Times,serif" font-size="14.00">Cryptol.Prims.Doc</text>
</g>
<!-- u3&#45;&gt;u4 -->
<g id="edge4" class="edge"><title>u3&#45;&gt;u4</title>
<path fill="none" stroke="black" d="M1426.01,-431.997C1405.04,-419.105 1375.35,-400.853 1352.26,-386.655"/>
<polygon fill="black" stroke="black" points="1353.8,-383.493 1343.45,-381.237 1350.13,-389.456 1353.8,-383.493"/>
</g>
<!-- u2&#45;&gt;u20 -->
<g id="edge2" class="edge"><title>u2&#45;&gt;u20</title>
<path fill="none" stroke="black" d="M466.742,-688.001C461.018,-676.274 453.298,-660.458 446.796,-647.138"/>
<polygon fill="black" stroke="black" points="449.855,-645.425 442.323,-637.973 443.564,-648.495 449.855,-645.425"/>
</g>
<!-- u35 -->
<g id="node33" class="node"><title>u35</title>
<ellipse fill="#66cccc" stroke="black" cx="627.039" cy="-620" rx="98.1881" ry="18"/>
<text text-anchor="middle" x="627.039" y="-616.3" font-family="Times,serif" font-size="14.00">Cryptol.Testing.Random</text>
</g>
<!-- u2&#45;&gt;u35 -->
<g id="edge3" class="edge"><title>u2&#45;&gt;u35</title>
<path fill="none" stroke="black" d="M503.629,-689.2C527.63,-675.936 562.135,-656.868 588.561,-642.264"/>
<polygon fill="black" stroke="black" points="590.481,-645.202 597.54,-637.302 587.095,-639.075 590.481,-645.202"/>
</g>
<!-- u1&#45;&gt;u5 -->
<g id="edge1" class="edge"><title>u1&#45;&gt;u5</title>
<path fill="none" stroke="black" d="M1039.28,-89.4043C1024.22,-76.7488 1003.28,-59.1641 986.573,-45.1289"/>
<polygon fill="black" stroke="black" points="988.663,-42.3132 978.755,-38.5612 984.16,-47.6732 988.663,-42.3132"/>
</g>
<!-- u38 -->
<g id="node30" class="node"><title>u38</title>
<ellipse fill="#669999" stroke="black" cx="128.039" cy="-278" rx="111.21" ry="18"/>
<text text-anchor="middle" x="128.039" y="-274.3" font-family="Times,serif" font-size="14.00">Cryptol.Symbolic.BitVector</text>
</g>
<!-- u38&#45;&gt;u7 -->
<g id="edge54" class="edge"><title>u38&#45;&gt;u7</title>
<path fill="none" stroke="black" d="M188.869,-262.846C254.714,-247.524 359.226,-223.206 425.942,-207.682"/>
<polygon fill="black" stroke="black" points="426.961,-211.038 435.907,-205.363 425.374,-204.22 426.961,-211.038"/>
</g>
<!-- u37 -->
<g id="node31" class="node"><title>u37</title>
<ellipse fill="#669999" stroke="black" cx="204.039" cy="-535" rx="97.237" ry="18"/>
<text text-anchor="middle" x="204.039" y="-531.3" font-family="Times,serif" font-size="14.00">Cryptol.Symbolic.Value</text>
</g>
<!-- u37&#45;&gt;u19 -->
<g id="edge52" class="edge"><title>u37&#45;&gt;u19</title>
<path fill="none" stroke="black" d="M288.828,-526.182C402.044,-515.292 608.693,-493.837 784.039,-467 791.094,-465.92 798.445,-464.689 805.764,-463.394"/>
<polygon fill="black" stroke="black" points="806.478,-466.822 815.695,-461.597 805.231,-459.934 806.478,-466.822"/>
</g>
<!-- u37&#45;&gt;u38 -->
<g id="edge53" class="edge"><title>u37&#45;&gt;u38</title>
<path fill="none" stroke="black" d="M171.174,-517.874C128.067,-494.65 54.3596,-447.29 24.0388,-382 17.2996,-367.489 16.3786,-360.047 24.0388,-346 35.3636,-325.233 56.1924,-309.934 76.252,-299.242"/>
<polygon fill="black" stroke="black" points="78.0177,-302.271 85.3775,-294.65 74.8713,-296.018 78.0177,-302.271"/>
</g>
<!-- u36&#45;&gt;u2 -->
<g id="edge50" class="edge"><title>u36&#45;&gt;u2</title>
<path fill="none" stroke="black" d="M252.176,-775.257C299.133,-760.875 370.493,-739.019 419.753,-723.933"/>
<polygon fill="black" stroke="black" points="421.068,-727.19 429.604,-720.915 419.018,-720.497 421.068,-727.19"/>
</g>
<!-- u36&#45;&gt;u37 -->
<g id="edge51" class="edge"><title>u36&#45;&gt;u37</title>
<path fill="none" stroke="black" d="M204.039,-772.94C204.039,-729.845 204.039,-616.293 204.039,-563.595"/>
<polygon fill="black" stroke="black" points="207.539,-563.32 204.039,-553.32 200.539,-563.32 207.539,-563.32"/>
</g>
<!-- u35&#45;&gt;u19 -->
<g id="edge49" class="edge"><title>u35&#45;&gt;u19</title>
<path fill="none" stroke="black" d="M632.399,-601.704C640.234,-579.153 656.908,-539.895 684.039,-517 717.132,-489.073 762.685,-472.467 800.778,-462.774"/>
<polygon fill="black" stroke="black" points="801.907,-466.101 810.797,-460.337 800.253,-459.299 801.907,-466.101"/>
</g>
<!-- u34 -->
<g id="node34" class="node"><title>u34</title>
<ellipse fill="#66cccc" stroke="black" cx="790.039" cy="-535" rx="96.2631" ry="18"/>
<text text-anchor="middle" x="790.039" y="-531.3" font-family="Times,serif" font-size="14.00">Cryptol.Testing.Exhaust</text>
</g>
<!-- u34&#45;&gt;u19 -->
<g id="edge48" class="edge"><title>u34&#45;&gt;u19</title>
<path fill="none" stroke="black" d="M806.835,-517.001C819.065,-504.624 835.796,-487.692 849.378,-473.946"/>
<polygon fill="black" stroke="black" points="852.012,-476.26 856.551,-466.687 847.032,-471.34 852.012,-476.26"/>
</g>
<!-- u15 -->
<g id="node35" class="node"><title>u15</title>
<ellipse fill="#66ffff" stroke="black" cx="905.039" cy="-1561" rx="116.01" ry="18"/>
<text text-anchor="middle" x="905.039" y="-1557.3" font-family="Times,serif" font-size="14.00">Cryptol.Transform.Specialize</text>
</g>
<!-- u15&#45;&gt;u31 -->
<g id="edge22" class="edge"><title>u15&#45;&gt;u31</title>
<path fill="none" stroke="black" d="M905.039,-1542.8C905.039,-1531.67 905.039,-1516.94 905.039,-1504.24"/>
<polygon fill="black" stroke="black" points="908.539,-1504.18 905.039,-1494.18 901.539,-1504.18 908.539,-1504.18"/>
</g>
<!-- u43 -->
<g id="node46" class="node"><title>u43</title>
<ellipse fill="#99cccc" stroke="black" cx="2203.04" cy="-449" rx="117.459" ry="18"/>
<text text-anchor="middle" x="2203.04" y="-445.3" font-family="Times,serif" font-size="14.00">Cryptol.TypeCheck.TypeMap</text>
</g>
<!-- u14&#45;&gt;u43 -->
<g id="edge21" class="edge"><title>u14&#45;&gt;u43</title>
<path fill="none" stroke="black" d="M1969.78,-1293.92C2128.06,-1275.12 2419.04,-1227.93 2419.04,-1135 2419.04,-1135 2419.04,-1135 2419.04,-961 2419.04,-760.106 2275.65,-547.353 2222.53,-475.426"/>
<polygon fill="black" stroke="black" points="2225.01,-472.903 2216.23,-466.982 2219.4,-477.09 2225.01,-472.903"/>
</g>
<!-- u63 -->
<g id="node37" class="node"><title>u63</title>
<ellipse fill="#99cccc" stroke="black" cx="1349.04" cy="-791" rx="120.359" ry="18"/>
<text text-anchor="middle" x="1349.04" y="-787.3" font-family="Times,serif" font-size="14.00">Cryptol.TypeCheck.Defaulting</text>
</g>
<!-- u52 -->
<g id="node54" class="node"><title>u52</title>
<ellipse fill="#99ffff" stroke="black" cx="1377.04" cy="-706" rx="139.606" ry="18"/>
<text text-anchor="middle" x="1377.04" y="-702.3" font-family="Times,serif" font-size="14.00">Cryptol.TypeCheck.Solver.Numeric</text>
</g>
<!-- u63&#45;&gt;u52 -->
<g id="edge95" class="edge"><title>u63&#45;&gt;u52</title>
<path fill="none" stroke="black" d="M1354.84,-772.802C1358.63,-761.562 1363.66,-746.65 1367.98,-733.863"/>
<polygon fill="black" stroke="black" points="1371.36,-734.77 1371.24,-724.176 1364.73,-732.532 1371.36,-734.77"/>
</g>
<!-- u62 -->
<g id="node38" class="node"><title>u62</title>
<ellipse fill="#99cccc" stroke="black" cx="1950.04" cy="-877" rx="119.384" ry="18"/>
<text text-anchor="middle" x="1950.04" y="-873.3" font-family="Times,serif" font-size="14.00">Cryptol.TypeCheck.Instantiate</text>
</g>
<!-- u41 -->
<g id="node48" class="node"><title>u41</title>
<ellipse fill="#99cccc" stroke="black" cx="1902.04" cy="-706" rx="108.31" ry="18"/>
<text text-anchor="middle" x="1902.04" y="-702.3" font-family="Times,serif" font-size="14.00">Cryptol.TypeCheck.Monad</text>
</g>
<!-- u62&#45;&gt;u41 -->
<g id="edge94" class="edge"><title>u62&#45;&gt;u41</title>
<path fill="none" stroke="black" d="M1987.46,-859.733C2025.2,-840.909 2074.87,-807.987 2052.04,-773 2035.91,-748.276 2008.21,-732.751 1980.97,-723.03"/>
<polygon fill="black" stroke="black" points="1981.97,-719.674 1971.37,-719.828 1979.75,-726.314 1981.97,-719.674"/>
</g>
<!-- u61 -->
<g id="node39" class="node"><title>u61</title>
<ellipse fill="#99cccc" stroke="black" cx="1634.04" cy="-620" rx="103.012" ry="18"/>
<text text-anchor="middle" x="1634.04" y="-616.3" font-family="Times,serif" font-size="14.00">Cryptol.TypeCheck.Unify</text>
</g>
<!-- u60 -->
<g id="node40" class="node"><title>u60</title>
<ellipse fill="#99cccc" stroke="black" cx="1727.04" cy="-364" rx="102.536" ry="18"/>
<text text-anchor="middle" x="1727.04" y="-360.3" font-family="Times,serif" font-size="14.00">Cryptol.TypeCheck.Subst</text>
</g>
<!-- u61&#45;&gt;u60 -->
<g id="edge93" class="edge"><title>u61&#45;&gt;u60</title>
<path fill="none" stroke="black" d="M1649.52,-601.887C1668.02,-581.503 1700,-546.5 1728.04,-517 1749.47,-494.446 1765.28,-495.806 1777.04,-467 1788.1,-439.921 1769.56,-409.983 1752.01,-389.587"/>
<polygon fill="black" stroke="black" points="1754.45,-387.066 1745.14,-381.998 1749.26,-391.762 1754.45,-387.066"/>
</g>
<!-- u60&#45;&gt;u44 -->
<g id="edge92" class="edge"><title>u60&#45;&gt;u44</title>
<path fill="none" stroke="black" d="M1652.69,-351.54C1551.38,-335.926 1370.55,-308.055 1264.97,-291.782"/>
<polygon fill="black" stroke="black" points="1265.41,-288.308 1254.99,-290.244 1264.34,-295.226 1265.41,-288.308"/>
</g>
<!-- u59 -->
<g id="node41" class="node"><title>u59</title>
<ellipse fill="#99cccc" stroke="black" cx="2043.04" cy="-962" rx="113.61" ry="18"/>
<text text-anchor="middle" x="2043.04" y="-958.3" font-family="Times,serif" font-size="14.00">Cryptol.TypeCheck.Depends</text>
</g>
<!-- u59&#45;&gt;u29 -->
<g id="edge90" class="edge"><title>u59&#45;&gt;u29</title>
<path fill="none" stroke="black" d="M2091.15,-945.583C2135.26,-931.446 2200.57,-910.518 2246.8,-895.702"/>
<polygon fill="black" stroke="black" points="2247.91,-899.023 2256.36,-892.638 2245.77,-892.357 2247.91,-899.023"/>
</g>
<!-- u59&#45;&gt;u41 -->
<g id="edge91" class="edge"><title>u59&#45;&gt;u41</title>
<path fill="none" stroke="black" d="M2055.03,-944.025C2063.31,-931.224 2073.59,-912.873 2078.04,-895 2085.45,-865.203 2073.18,-778.45 2069.04,-773 2049.39,-747.122 2018.06,-731.375 1987.82,-721.8"/>
<polygon fill="black" stroke="black" points="1988.64,-718.392 1978.06,-718.903 1986.65,-725.103 1988.64,-718.392"/>
</g>
<!-- u58 -->
<g id="node42" class="node"><title>u58</title>
<ellipse fill="#99cccc" stroke="black" cx="1946.04" cy="-449" rx="121.309" ry="18"/>
<text text-anchor="middle" x="1946.04" y="-445.3" font-family="Times,serif" font-size="14.00">Cryptol.TypeCheck.InferTypes</text>
</g>
<!-- u58&#45;&gt;u60 -->
<g id="edge89" class="edge"><title>u58&#45;&gt;u60</title>
<path fill="none" stroke="black" d="M1904.07,-432.095C1868.01,-418.426 1815.9,-398.679 1777.56,-384.146"/>
<polygon fill="black" stroke="black" points="1778.71,-380.841 1768.12,-380.57 1776.23,-387.387 1778.71,-380.841"/>
</g>
<!-- u57 -->
<g id="node43" class="node"><title>u57</title>
<ellipse fill="#99cccc" stroke="black" cx="1658.04" cy="-449" rx="110.235" ry="18"/>
<text text-anchor="middle" x="1658.04" y="-445.3" font-family="Times,serif" font-size="14.00">Cryptol.TypeCheck.TypeOf</text>
</g>
<!-- u57&#45;&gt;u4 -->
<g id="edge87" class="edge"><title>u57&#45;&gt;u4</title>
<path fill="none" stroke="black" d="M1599.42,-433.732C1538.41,-418.883 1443.2,-395.707 1380.47,-380.438"/>
<polygon fill="black" stroke="black" points="1381.23,-377.022 1370.69,-378.058 1379.58,-383.824 1381.23,-377.022"/>
</g>
<!-- u57&#45;&gt;u60 -->
<g id="edge88" class="edge"><title>u57&#45;&gt;u60</title>
<path fill="none" stroke="black" d="M1672.34,-430.802C1682.21,-418.927 1695.49,-402.953 1706.49,-389.718"/>
<polygon fill="black" stroke="black" points="1709.3,-391.819 1713,-381.892 1703.91,-387.344 1709.3,-391.819"/>
</g>
<!-- u56 -->
<g id="node44" class="node"><title>u56</title>
<ellipse fill="#99cccc" stroke="black" cx="1619.04" cy="-962" rx="100.611" ry="18"/>
<text text-anchor="middle" x="1619.04" y="-958.3" font-family="Times,serif" font-size="14.00">Cryptol.TypeCheck.Kind</text>
</g>
<!-- u40 -->
<g id="node49" class="node"><title>u40</title>
<ellipse fill="#99cccc" stroke="black" cx="1619.04" cy="-877" rx="102.536" ry="18"/>
<text text-anchor="middle" x="1619.04" y="-873.3" font-family="Times,serif" font-size="14.00">Cryptol.TypeCheck.Solve</text>
</g>
<!-- u56&#45;&gt;u40 -->
<g id="edge86" class="edge"><title>u56&#45;&gt;u40</title>
<path fill="none" stroke="black" d="M1619.04,-943.802C1619.04,-932.674 1619.04,-917.945 1619.04,-905.244"/>
<polygon fill="black" stroke="black" points="1622.54,-905.176 1619.04,-895.176 1615.54,-905.176 1622.54,-905.176"/>
</g>
<!-- u44&#45;&gt;u25 -->
<g id="edge69" class="edge"><title>u44&#45;&gt;u25</title>
<path fill="none" stroke="black" d="M1144.61,-261.2C1111.68,-247.299 1063.64,-227.023 1028.51,-212.192"/>
<polygon fill="black" stroke="black" points="1029.53,-208.828 1018.96,-208.163 1026.81,-215.277 1029.53,-208.828"/>
</g>
<!-- u39 -->
<g id="node50" class="node"><title>u39</title>
<ellipse fill="#99cccc" stroke="black" cx="1180.04" cy="-192" rx="92.413" ry="18"/>
<text text-anchor="middle" x="1180.04" y="-188.3" font-family="Times,serif" font-size="14.00">Cryptol.TypeCheck.PP</text>
</g>
<!-- u44&#45;&gt;u39 -->
<g id="edge70" class="edge"><title>u44&#45;&gt;u39</title>
<path fill="none" stroke="black" d="M1181.62,-259.595C1181.35,-248.257 1181,-233.227 1180.69,-220.315"/>
<polygon fill="black" stroke="black" points="1184.18,-220.009 1180.45,-210.095 1177.18,-220.176 1184.18,-220.009"/>
</g>
<!-- u44&#45;&gt;u7 -->
<g id="edge68" class="edge"><title>u44&#45;&gt;u7</title>
<path fill="none" stroke="black" d="M1110.57,-265.429C1098.07,-263.527 1085.19,-261.643 1073.04,-260 893.814,-235.753 682.865,-212.969 570.001,-201.241"/>
<polygon fill="black" stroke="black" points="570.03,-197.726 559.722,-200.176 569.308,-204.688 570.03,-197.726"/>
</g>
<!-- u43&#45;&gt;u44 -->
<g id="edge67" class="edge"><title>u43&#45;&gt;u44</title>
<path fill="none" stroke="black" d="M2156.97,-432.383C2088.32,-409.741 1954.73,-368.096 1838.04,-346 1645.43,-309.528 1416.98,-291.87 1286.82,-284.176"/>
<polygon fill="black" stroke="black" points="1286.65,-280.66 1276.46,-283.573 1286.24,-287.649 1286.65,-280.66"/>
</g>
<!-- u42&#45;&gt;u4 -->
<g id="edge63" class="edge"><title>u42&#45;&gt;u4</title>
<path fill="none" stroke="black" d="M1565.53,-1032.74C1476.19,-1005.79 1298.73,-938.147 1220.04,-809 1152.38,-697.966 1278.5,-622.166 1202.04,-517 1166.37,-467.936 1109.18,-517.139 1075.04,-467 1066.03,-453.775 1065.33,-443.715 1075.04,-431 1094.92,-404.966 1175.02,-386.736 1237.69,-376.13"/>
<polygon fill="black" stroke="black" points="1238.29,-379.578 1247.58,-374.493 1237.15,-372.672 1238.29,-379.578"/>
</g>
<!-- u42&#45;&gt;u62 -->
<g id="edge66" class="edge"><title>u42&#45;&gt;u62</title>
<path fill="none" stroke="black" d="M1650.78,-1030.8C1711.05,-1000.02 1842.01,-933.156 1908.91,-898.999"/>
<polygon fill="black" stroke="black" points="1910.6,-902.068 1917.91,-894.404 1907.41,-895.834 1910.6,-902.068"/>
</g>
<!-- u42&#45;&gt;u59 -->
<g id="edge65" class="edge"><title>u42&#45;&gt;u59</title>
<path fill="none" stroke="black" d="M1683.9,-1034.15C1759.42,-1019.19 1884.12,-994.484 1964.91,-978.478"/>
<polygon fill="black" stroke="black" points="1965.9,-981.85 1975.03,-976.474 1964.54,-974.984 1965.9,-981.85"/>
</g>
<!-- u42&#45;&gt;u56 -->
<g id="edge64" class="edge"><title>u42&#45;&gt;u56</title>
<path fill="none" stroke="black" d="M1619.04,-1029.6C1619.04,-1018.26 1619.04,-1003.23 1619.04,-990.315"/>
<polygon fill="black" stroke="black" points="1622.54,-990.095 1619.04,-980.095 1615.54,-990.095 1622.54,-990.095"/>
</g>
<!-- u41&#45;&gt;u61 -->
<g id="edge62" class="edge"><title>u41&#45;&gt;u61</title>
<path fill="none" stroke="black" d="M1853.51,-689.788C1808.07,-675.546 1740.12,-654.25 1691.89,-639.131"/>
<polygon fill="black" stroke="black" points="1692.8,-635.75 1682.21,-636.099 1690.71,-642.429 1692.8,-635.75"/>
</g>
<!-- u41&#45;&gt;u58 -->
<g id="edge61" class="edge"><title>u41&#45;&gt;u58</title>
<path fill="none" stroke="black" d="M1920.31,-687.984C1946.8,-661.929 1994.69,-609.227 2013.04,-553 2018,-537.789 2019.16,-531.782 2013.04,-517 2005.88,-499.722 1991.87,-484.576 1978.5,-473.077"/>
<polygon fill="black" stroke="black" points="1980.71,-470.366 1970.76,-466.739 1976.28,-475.782 1980.71,-470.366"/>
</g>
<!-- u40&#45;&gt;u63 -->
<g id="edge60" class="edge"><title>u40&#45;&gt;u63</title>
<path fill="none" stroke="black" d="M1571.08,-861.079C1525.71,-846.965 1457.49,-825.739 1408.64,-810.543"/>
<polygon fill="black" stroke="black" points="1409.42,-807.121 1398.84,-807.493 1407.35,-813.805 1409.42,-807.121"/>
</g>
<!-- u54 -->
<g id="node52" class="node"><title>u54</title>
<ellipse fill="#99ffff" stroke="black" cx="749.039" cy="-706" rx="137.183" ry="18"/>
<text text-anchor="middle" x="749.039" y="-702.3" font-family="Times,serif" font-size="14.00">Cryptol.TypeCheck.Solver.CrySAT</text>
</g>
<!-- u40&#45;&gt;u54 -->
<g id="edge59" class="edge"><title>u40&#45;&gt;u54</title>
<path fill="none" stroke="black" d="M1544.58,-864.566C1464.29,-851.988 1332.82,-830.669 1220.04,-809 1079.33,-781.965 916.091,-745.453 823.443,-724.243"/>
<polygon fill="black" stroke="black" points="824.13,-720.81 813.601,-721.987 822.566,-727.633 824.13,-720.81"/>
</g>
<!-- u53 -->
<g id="node53" class="node"><title>u53</title>
<ellipse fill="#99ffff" stroke="black" cx="2156.04" cy="-706" rx="127.083" ry="18"/>
<text text-anchor="middle" x="2156.04" y="-702.3" font-family="Times,serif" font-size="14.00">Cryptol.TypeCheck.Solver.Class</text>
</g>
<!-- u40&#45;&gt;u53 -->
<g id="edge58" class="edge"><title>u40&#45;&gt;u53</title>
<path fill="none" stroke="black" d="M1709.89,-868.517C1818.7,-858.422 1993.64,-838.269 2052.04,-809 2087.88,-791.036 2119.21,-756.205 2137.88,-732.287"/>
<polygon fill="black" stroke="black" points="2140.9,-734.098 2144.17,-724.02 2135.33,-729.86 2140.9,-734.098"/>
</g>
<!-- u51 -->
<g id="node55" class="node"><title>u51</title>
<ellipse fill="#99ffff" stroke="black" cx="1906.04" cy="-791" rx="137.207" ry="18"/>
<text text-anchor="middle" x="1906.04" y="-787.3" font-family="Times,serif" font-size="14.00">Cryptol.TypeCheck.Solver.Selector</text>
</g>
<!-- u40&#45;&gt;u51 -->
<g id="edge57" class="edge"><title>u40&#45;&gt;u51</title>
<path fill="none" stroke="black" d="M1669.36,-861.272C1717.54,-847.171 1790.4,-825.845 1842.55,-810.582"/>
<polygon fill="black" stroke="black" points="1843.75,-813.878 1852.36,-807.71 1841.78,-807.16 1843.75,-813.878"/>
</g>
<!-- u46 -->
<g id="node60" class="node"><title>u46</title>
<ellipse fill="#99ffff" stroke="black" cx="1619.04" cy="-791" rx="131.408" ry="18"/>
<text text-anchor="middle" x="1619.04" y="-787.3" font-family="Times,serif" font-size="14.00">Cryptol.TypeCheck.Solver.Smtlib</text>
</g>
<!-- u40&#45;&gt;u46 -->
<g id="edge56" class="edge"><title>u40&#45;&gt;u46</title>
<path fill="none" stroke="black" d="M1619.04,-858.595C1619.04,-847.257 1619.04,-832.227 1619.04,-819.315"/>
<polygon fill="black" stroke="black" points="1622.54,-819.095 1619.04,-809.095 1615.54,-819.095 1622.54,-819.095"/>
</g>
<!-- u39&#45;&gt;u5 -->
<g id="edge55" class="edge"><title>u39&#45;&gt;u5</title>
<path fill="none" stroke="black" d="M1180.58,-173.898C1180.35,-151.563 1176.57,-112.543 1155.04,-89 1123.87,-54.9264 1074.66,-38.1781 1033.34,-29.9473"/>
<polygon fill="black" stroke="black" points="1033.77,-26.4669 1023.3,-28.0802 1032.49,-33.349 1033.77,-26.4669"/>
</g>
<!-- u55 -->
<g id="node51" class="node"><title>u55</title>
<ellipse fill="#99ffff" stroke="black" cx="1068.04" cy="-535" rx="125.158" ry="18"/>
<text text-anchor="middle" x="1068.04" y="-531.3" font-family="Times,serif" font-size="14.00">Cryptol.TypeCheck.Solver.Utils</text>
</g>
<!-- u55&#45;&gt;u44 -->
<g id="edge85" class="edge"><title>u55&#45;&gt;u44</title>
<path fill="none" stroke="black" d="M1057.35,-516.826C1045.84,-496.044 1030.64,-460.207 1042.04,-431 1063.63,-375.697 1115.8,-328.379 1150,-301.831"/>
<polygon fill="black" stroke="black" points="1152.44,-304.376 1158.28,-295.537 1148.2,-298.803 1152.44,-304.376"/>
</g>
<!-- u54&#45;&gt;u7 -->
<g id="edge84" class="edge"><title>u54&#45;&gt;u7</title>
<path fill="none" stroke="black" d="M751.99,-687.854C754.847,-665.069 755.988,-625.016 734.039,-602 655.296,-519.43 554.611,-641.043 482.039,-553 461.105,-527.604 479.35,-300.369 486.481,-220.561"/>
<polygon fill="black" stroke="black" points="489.992,-220.589 487.408,-210.314 483.021,-219.958 489.992,-220.589"/>
</g>
<!-- u53&#45;&gt;u58 -->
<g id="edge83" class="edge"><title>u53&#45;&gt;u58</title>
<path fill="none" stroke="black" d="M2146.97,-687.933C2128.11,-653.354 2082.06,-573.519 2030.04,-517 2014.87,-500.52 1995.45,-484.76 1979.11,-472.67"/>
<polygon fill="black" stroke="black" points="1981.03,-469.739 1970.88,-466.698 1976.92,-475.405 1981.03,-469.739"/>
</g>
<!-- u52&#45;&gt;u61 -->
<g id="edge82" class="edge"><title>u52&#45;&gt;u61</title>
<path fill="none" stroke="black" d="M1425.68,-689.101C1469.06,-674.922 1532.57,-654.166 1578.05,-639.299"/>
<polygon fill="black" stroke="black" points="1579.34,-642.56 1587.76,-636.127 1577.17,-635.907 1579.34,-642.56"/>
</g>
<!-- u49 -->
<g id="node57" class="node"><title>u49</title>
<ellipse fill="#99ffff" stroke="black" cx="1377.04" cy="-620" rx="124.209" ry="18"/>
<text text-anchor="middle" x="1377.04" y="-616.3" font-family="Times,serif" font-size="14.00">Cryptol.TypeCheck.Solver.Eval</text>
</g>
<!-- u52&#45;&gt;u49 -->
<g id="edge81" class="edge"><title>u52&#45;&gt;u49</title>
<path fill="none" stroke="black" d="M1377.04,-687.595C1377.04,-676.257 1377.04,-661.227 1377.04,-648.315"/>
<polygon fill="black" stroke="black" points="1380.54,-648.095 1377.04,-638.095 1373.54,-648.095 1380.54,-648.095"/>
</g>
<!-- u51&#45;&gt;u41 -->
<g id="edge80" class="edge"><title>u51&#45;&gt;u41</title>
<path fill="none" stroke="black" d="M1905.21,-772.802C1904.67,-761.674 1903.96,-746.945 1903.35,-734.244"/>
<polygon fill="black" stroke="black" points="1906.84,-733.996 1902.87,-724.176 1899.85,-734.333 1906.84,-733.996"/>
</g>
<!-- u50 -->
<g id="node56" class="node"><title>u50</title>
<ellipse fill="#99ffff" stroke="black" cx="633.039" cy="-449" rx="142.006" ry="18"/>
<text text-anchor="middle" x="633.039" y="-445.3" font-family="Times,serif" font-size="14.00">Cryptol.TypeCheck.Solver.CrySAT1</text>
</g>
<!-- u50&#45;&gt;u47 -->
<g id="edge79" class="edge"><title>u50&#45;&gt;u47</title>
<path fill="none" stroke="black" d="M636.147,-430.802C638.158,-419.674 640.82,-404.945 643.115,-392.244"/>
<polygon fill="black" stroke="black" points="646.6,-392.639 644.935,-382.176 639.712,-391.394 646.6,-392.639"/>
</g>
<!-- u49&#45;&gt;u55 -->
<g id="edge78" class="edge"><title>u49&#45;&gt;u55</title>
<path fill="none" stroke="black" d="M1320.72,-603.873C1268.09,-589.736 1189.51,-568.627 1133.97,-553.71"/>
<polygon fill="black" stroke="black" points="1134.79,-550.307 1124.23,-551.093 1132.98,-557.067 1134.79,-550.307"/>
</g>
<!-- u45 -->
<g id="node61" class="node"><title>u45</title>
<ellipse fill="#99ffff" stroke="black" cx="1871.04" cy="-535" rx="133.333" ry="18"/>
<text text-anchor="middle" x="1871.04" y="-531.3" font-family="Times,serif" font-size="14.00">Cryptol.TypeCheck.Solver.FinOrd</text>
</g>
<!-- u49&#45;&gt;u45 -->
<g id="edge77" class="edge"><title>u49&#45;&gt;u45</title>
<path fill="none" stroke="black" d="M1454.77,-605.94C1543.25,-591.074 1687.56,-566.827 1780.9,-551.145"/>
<polygon fill="black" stroke="black" points="1781.61,-554.574 1790.9,-549.465 1780.45,-547.671 1781.61,-554.574"/>
</g>
<!-- u48 -->
<g id="node58" class="node"><title>u48</title>
<ellipse fill="#99ffff" stroke="black" cx="1220.04" cy="-449" rx="135.258" ry="18"/>
<text text-anchor="middle" x="1220.04" y="-445.3" font-family="Times,serif" font-size="14.00">Cryptol.TypeCheck.Solver.Interval</text>
</g>
<!-- u48&#45;&gt;u47 -->
<g id="edge76" class="edge"><title>u48&#45;&gt;u47</title>
<path fill="none" stroke="black" d="M1132.23,-435.258C1027.46,-420.055 852.873,-394.722 744.445,-378.989"/>
<polygon fill="black" stroke="black" points="744.887,-375.517 734.488,-377.544 743.882,-382.444 744.887,-375.517"/>
</g>
<!-- u47&#45;&gt;u7 -->
<g id="edge75" class="edge"><title>u47&#45;&gt;u7</title>
<path fill="none" stroke="black" d="M632.212,-346.078C603.878,-315.784 544.403,-252.194 511.73,-217.261"/>
<polygon fill="black" stroke="black" points="514.189,-214.766 504.802,-209.853 509.076,-219.548 514.189,-214.766"/>
</g>
<!-- u46&#45;&gt;u45 -->
<g id="edge74" class="edge"><title>u46&#45;&gt;u45</title>
<path fill="none" stroke="black" d="M1635.96,-772.94C1679.63,-728.927 1796.2,-611.428 1846.92,-560.314"/>
<polygon fill="black" stroke="black" points="1849.63,-562.55 1854.19,-552.986 1844.66,-557.62 1849.63,-562.55"/>
</g>
<!-- u45&#45;&gt;u58 -->
<g id="edge73" class="edge"><title>u45&#45;&gt;u58</title>
<path fill="none" stroke="black" d="M1886.22,-517.001C1897.09,-504.819 1911.91,-488.224 1924.08,-474.597"/>
<polygon fill="black" stroke="black" points="1926.83,-476.764 1930.88,-466.973 1921.61,-472.102 1926.83,-476.764"/>
</g>
<!-- u45&#45;&gt;u43 -->
<g id="edge71" class="edge"><title>u45&#45;&gt;u43</title>
<path fill="none" stroke="black" d="M1930.78,-518.885C1988.25,-504.344 2075.04,-482.384 2135.12,-467.185"/>
<polygon fill="black" stroke="black" points="2136.06,-470.557 2144.89,-464.711 2134.34,-463.771 2136.06,-470.557"/>
</g>
<!-- u45&#45;&gt;u48 -->
<g id="edge72" class="edge"><title>u45&#45;&gt;u48</title>
<path fill="none" stroke="black" d="M1778.11,-522.009C1657.8,-506.485 1448.74,-479.51 1323.5,-463.35"/>
<polygon fill="black" stroke="black" points="1323.88,-459.869 1313.51,-462.061 1322.98,-466.812 1323.88,-459.869"/>
</g>
<!-- u7&#45;&gt;u17 -->
<g id="edge7" class="edge"><title>u7&#45;&gt;u17</title>
<path fill="none" stroke="black" d="M489.039,-173.802C489.039,-162.674 489.039,-147.945 489.039,-135.244"/>
<polygon fill="black" stroke="black" points="492.539,-135.176 489.039,-125.176 485.539,-135.176 492.539,-135.176"/>
</g>
<!-- u6 -->
<g id="node63" class="node"><title>u6</title>
<ellipse fill="#ccffff" stroke="black" cx="666.039" cy="-107" rx="83.2892" ry="18"/>
<text text-anchor="middle" x="666.039" y="-103.3" font-family="Times,serif" font-size="14.00">Cryptol.Utils.Debug</text>
</g>
<!-- u6&#45;&gt;u5 -->
<g id="edge6" class="edge"><title>u6&#45;&gt;u5</title>
<path fill="none" stroke="black" d="M714.094,-92.2232C766.364,-77.2378 849.754,-53.3308 904.457,-37.6481"/>
<polygon fill="black" stroke="black" points="905.675,-40.94 914.323,-34.8196 903.746,-34.211 905.675,-40.94"/>
</g>
</g>
</svg>
