<?xml version="1.0" encoding="UTF-8" standalone="no"?>
<!DOCTYPE svg PUBLIC "-//W3C//DTD SVG 1.1//EN"
 "http://www.w3.org/Graphics/SVG/1.1/DTD/svg11.dtd">
<!-- Generated by graphviz version 2.36.0 (20140111.2315)
 -->
<!-- Title: G Pages: 1 -->
<svg width="432pt" height="285pt"
 viewBox="0.00 0.00 432.00 284.82" xmlns="http://www.w3.org/2000/svg" xmlns:xlink="http://www.w3.org/1999/xlink">
<g id="graph0" class="graph" transform="scale(0.372805 0.372805) rotate(0) translate(4 760)">
<title>G</title>
<polygon fill="white" stroke="none" points="-4,4 -4,-760 1154.78,-760 1154.78,4 -4,4"/>
<!-- u36 -->
<g id="node1" class="node"><title>u36</title>
<ellipse fill="none" stroke="black" cx="432" cy="-594" rx="39.9464" ry="18"/>
<text text-anchor="middle" x="432" y="-590.3" font-family="Times,serif" font-size="14.00">TcDeriv</text>
</g>
<!-- u30 -->
<g id="node7" class="node"><title>u30</title>
<ellipse fill="none" stroke="black" cx="239" cy="-522" rx="65.4659" ry="18"/>
<text text-anchor="middle" x="239" y="-518.3" font-family="Times,serif" font-size="14.00">TcGenGenerics</text>
</g>
<!-- u36&#45;&gt;u30 -->
<g id="edge41" class="edge"><title>u36&#45;&gt;u30</title>
<path fill="none" stroke="black" d="M401.844,-582.062C371.027,-570.886 322.716,-553.363 286.706,-540.303"/>
<polygon fill="black" stroke="black" points="287.494,-536.866 276.9,-536.746 285.108,-543.446 287.494,-536.866"/>
</g>
<!-- u27 -->
<g id="node10" class="node"><title>u27</title>
<ellipse fill="none" stroke="black" cx="432" cy="-450" rx="61.6163" ry="18"/>
<text text-anchor="middle" x="432" y="-446.3" font-family="Times,serif" font-size="14.00">TcTyClsDecls</text>
</g>
<!-- u36&#45;&gt;u27 -->
<g id="edge40" class="edge"><title>u36&#45;&gt;u27</title>
<path fill="none" stroke="black" d="M432,-575.871C432,-551.67 432,-507.211 432,-478.393"/>
<polygon fill="black" stroke="black" points="435.5,-478.189 432,-468.189 428.5,-478.189 435.5,-478.189"/>
</g>
<!-- u35 -->
<g id="node2" class="node"><title>u35</title>
<ellipse fill="none" stroke="black" cx="435" cy="-666" rx="49.0941" ry="18"/>
<text text-anchor="middle" x="435" y="-662.3" font-family="Times,serif" font-size="14.00">TcInstDcls</text>
</g>
<!-- u35&#45;&gt;u36 -->
<g id="edge39" class="edge"><title>u35&#45;&gt;u36</title>
<path fill="none" stroke="black" d="M434.258,-647.697C433.928,-639.983 433.531,-630.712 433.162,-622.112"/>
<polygon fill="black" stroke="black" points="436.658,-621.945 432.733,-612.104 429.665,-622.245 436.658,-621.945"/>
</g>
<!-- u34 -->
<g id="node3" class="node"><title>u34</title>
<ellipse fill="none" stroke="black" cx="667" cy="-522" rx="47.169" ry="18"/>
<text text-anchor="middle" x="667" y="-518.3" font-family="Times,serif" font-size="14.00">TcForeign</text>
</g>
<!-- u11 -->
<g id="node26" class="node"><title>u11</title>
<ellipse fill="none" stroke="black" cx="750" cy="-234" rx="37.0701" ry="18"/>
<text text-anchor="middle" x="750" y="-230.3" font-family="Times,serif" font-size="14.00">TcExpr</text>
</g>
<!-- u34&#45;&gt;u11 -->
<g id="edge38" class="edge"><title>u34&#45;&gt;u11</title>
<path fill="none" stroke="black" d="M676.014,-504.112C688.218,-480.549 709.865,-436.173 722,-396 735.857,-350.127 743.617,-294.7 747.294,-262.296"/>
<polygon fill="black" stroke="black" points="750.786,-262.556 748.387,-252.236 743.827,-261.8 750.786,-262.556"/>
</g>
<!-- u33 -->
<g id="node4" class="node"><title>u33</title>
<ellipse fill="none" stroke="black" cx="147" cy="-594" rx="63.0666" ry="18"/>
<text text-anchor="middle" x="147" y="-590.3" font-family="Times,serif" font-size="14.00">TcAnnotations</text>
</g>
<!-- u1 -->
<g id="node36" class="node"><title>u1</title>
<ellipse fill="none" stroke="black" cx="79" cy="-234" rx="55.3436" ry="18"/>
<text text-anchor="middle" x="79" y="-230.3" font-family="Times,serif" font-size="14.00">TcRnMonad</text>
</g>
<!-- u33&#45;&gt;u1 -->
<g id="edge37" class="edge"><title>u33&#45;&gt;u1</title>
<path fill="none" stroke="black" d="M113.643,-578.721C70.2723,-557.645 0,-513.806 0,-451 0,-451 0,-451 0,-377 0,-335.533 6.84111,-323.662 28,-288 34.4506,-277.128 43.5392,-266.738 52.2608,-258.084"/>
<polygon fill="black" stroke="black" points="54.9206,-260.385 59.7552,-250.957 50.0967,-255.312 54.9206,-260.385"/>
</g>
<!-- u32 -->
<g id="node5" class="node"><title>u32</title>
<ellipse fill="none" stroke="black" cx="529" cy="-738" rx="52.9443" ry="18"/>
<text text-anchor="middle" x="529" y="-734.3" font-family="Times,serif" font-size="14.00">TcRnDriver</text>
</g>
<!-- u32&#45;&gt;u35 -->
<g id="edge36" class="edge"><title>u32&#45;&gt;u35</title>
<path fill="none" stroke="black" d="M507.67,-721.116C494.841,-711.562 478.33,-699.267 464.29,-688.812"/>
<polygon fill="black" stroke="black" points="466.033,-685.746 455.922,-682.58 461.852,-691.36 466.033,-685.746"/>
</g>
<!-- u32&#45;&gt;u34 -->
<g id="edge35" class="edge"><title>u32&#45;&gt;u34</title>
<path fill="none" stroke="black" d="M532.449,-719.76C536.646,-701.187 544.849,-671.181 558,-648 580.565,-608.228 617.081,-569.696 641.555,-546.172"/>
<polygon fill="black" stroke="black" points="644.191,-548.496 649.045,-539.079 639.378,-543.413 644.191,-548.496"/>
</g>
<!-- u32&#45;&gt;u33 -->
<g id="edge34" class="edge"><title>u32&#45;&gt;u33</title>
<path fill="none" stroke="black" d="M492.638,-724.706C461.768,-714.177 416.345,-698.467 377,-684 312.284,-660.204 237.97,-631.126 191.745,-612.829"/>
<polygon fill="black" stroke="black" points="192.907,-609.524 182.321,-609.094 190.328,-616.032 192.907,-609.524"/>
</g>
<!-- u26 -->
<g id="node11" class="node"><title>u26</title>
<ellipse fill="none" stroke="black" cx="850" cy="-666" rx="39.9464" ry="18"/>
<text text-anchor="middle" x="850" y="-662.3" font-family="Times,serif" font-size="14.00">TcRules</text>
</g>
<!-- u32&#45;&gt;u26 -->
<g id="edge33" class="edge"><title>u32&#45;&gt;u26</title>
<path fill="none" stroke="black" d="M572.444,-727.559C583.995,-725.074 596.465,-722.414 608,-720 686.575,-703.556 706.804,-702.163 785,-684 792.108,-682.349 799.624,-680.49 806.924,-678.622"/>
<polygon fill="black" stroke="black" points="807.885,-681.989 816.686,-676.09 806.128,-675.213 807.885,-681.989"/>
</g>
<!-- u0 -->
<g id="node37" class="node"><title>u0</title>
<ellipse fill="none" stroke="black" cx="972" cy="-666" rx="50.0684" ry="18"/>
<text text-anchor="middle" x="972" y="-662.3" font-family="Times,serif" font-size="14.00">TcDefaults</text>
</g>
<!-- u32&#45;&gt;u0 -->
<g id="edge32" class="edge"><title>u32&#45;&gt;u0</title>
<path fill="none" stroke="black" d="M571.506,-727.128C583.285,-724.59 596.104,-722.012 608,-720 736.495,-698.271 770.693,-706.811 899,-684 906.657,-682.639 914.718,-680.986 922.576,-679.253"/>
<polygon fill="black" stroke="black" points="923.398,-682.656 932.376,-677.031 921.85,-675.829 923.398,-682.656"/>
</g>
<!-- u31 -->
<g id="node6" class="node"><title>u31</title>
<ellipse fill="none" stroke="black" cx="111" cy="-450" rx="54.3924" ry="18"/>
<text text-anchor="middle" x="111" y="-446.3" font-family="Times,serif" font-size="14.00">TcGenDeriv</text>
</g>
<!-- u5 -->
<g id="node32" class="node"><title>u5</title>
<ellipse fill="none" stroke="black" cx="111" cy="-378" rx="34.1708" ry="18"/>
<text text-anchor="middle" x="111" y="-374.3" font-family="Times,serif" font-size="14.00">TcEnv</text>
</g>
<!-- u31&#45;&gt;u5 -->
<g id="edge31" class="edge"><title>u31&#45;&gt;u5</title>
<path fill="none" stroke="black" d="M111,-431.697C111,-423.983 111,-414.712 111,-406.112"/>
<polygon fill="black" stroke="black" points="114.5,-406.104 111,-396.104 107.5,-406.104 114.5,-406.104"/>
</g>
<!-- u30&#45;&gt;u31 -->
<g id="edge30" class="edge"><title>u30&#45;&gt;u31</title>
<path fill="none" stroke="black" d="M210.91,-505.638C192.147,-495.378 167.297,-481.787 147.074,-470.728"/>
<polygon fill="black" stroke="black" points="148.6,-467.573 138.147,-465.846 145.241,-473.715 148.6,-467.573"/>
</g>
<!-- u21 -->
<g id="node16" class="node"><title>u21</title>
<ellipse fill="none" stroke="black" cx="239" cy="-450" rx="39.9464" ry="18"/>
<text text-anchor="middle" x="239" y="-446.3" font-family="Times,serif" font-size="14.00">FamInst</text>
</g>
<!-- u30&#45;&gt;u21 -->
<g id="edge29" class="edge"><title>u30&#45;&gt;u21</title>
<path fill="none" stroke="black" d="M239,-503.697C239,-495.983 239,-486.712 239,-478.112"/>
<polygon fill="black" stroke="black" points="242.5,-478.104 239,-468.104 235.5,-478.104 242.5,-478.104"/>
</g>
<!-- u29 -->
<g id="node8" class="node"><title>u29</title>
<ellipse fill="none" stroke="black" cx="393" cy="-378" rx="51.4931" ry="18"/>
<text text-anchor="middle" x="393" y="-374.3" font-family="Times,serif" font-size="14.00">TcClassDcl</text>
</g>
<!-- u16 -->
<g id="node21" class="node"><title>u16</title>
<ellipse fill="none" stroke="black" cx="670" cy="-306" rx="31.2965" ry="18"/>
<text text-anchor="middle" x="670" y="-302.3" font-family="Times,serif" font-size="14.00">TcPat</text>
</g>
<!-- u29&#45;&gt;u16 -->
<g id="edge28" class="edge"><title>u29&#45;&gt;u16</title>
<path fill="none" stroke="black" d="M433.575,-366.746C486.968,-353.253 580.116,-329.714 632.127,-316.571"/>
<polygon fill="black" stroke="black" points="633.119,-319.93 641.957,-314.087 631.404,-313.143 633.119,-319.93"/>
</g>
<!-- u28 -->
<g id="node9" class="node"><title>u28</title>
<ellipse fill="none" stroke="black" cx="529" cy="-378" rx="50.0684" ry="18"/>
<text text-anchor="middle" x="529" y="-374.3" font-family="Times,serif" font-size="14.00">TcTyDecls</text>
</g>
<!-- u27&#45;&gt;u29 -->
<g id="edge27" class="edge"><title>u27&#45;&gt;u29</title>
<path fill="none" stroke="black" d="M422.559,-432.055C417.96,-423.801 412.334,-413.701 407.228,-404.538"/>
<polygon fill="black" stroke="black" points="410.278,-402.821 402.354,-395.789 404.163,-406.228 410.278,-402.821"/>
</g>
<!-- u27&#45;&gt;u28 -->
<g id="edge26" class="edge"><title>u27&#45;&gt;u28</title>
<path fill="none" stroke="black" d="M454.011,-433.116C467.468,-423.405 484.85,-410.861 499.49,-400.296"/>
<polygon fill="black" stroke="black" points="501.682,-403.03 507.743,-394.34 497.586,-397.354 501.682,-403.03"/>
</g>
<!-- u18 -->
<g id="node19" class="node"><title>u18</title>
<ellipse fill="none" stroke="black" cx="877" cy="-594" rx="51.0191" ry="18"/>
<text text-anchor="middle" x="877" y="-590.3" font-family="Times,serif" font-size="14.00">TcSimplify</text>
</g>
<!-- u26&#45;&gt;u18 -->
<g id="edge25" class="edge"><title>u26&#45;&gt;u18</title>
<path fill="none" stroke="black" d="M856.536,-648.055C859.575,-640.176 863.262,-630.617 866.665,-621.794"/>
<polygon fill="black" stroke="black" points="870.003,-622.865 870.337,-612.275 863.472,-620.346 870.003,-622.865"/>
</g>
<!-- u25 -->
<g id="node12" class="node"><title>u25</title>
<ellipse fill="none" stroke="black" cx="709" cy="-162" rx="46.2191" ry="18"/>
<text text-anchor="middle" x="709" y="-158.3" font-family="Times,serif" font-size="14.00">TcArrows</text>
</g>
<!-- u25&#45;&gt;u16 -->
<g id="edge24" class="edge"><title>u25&#45;&gt;u16</title>
<path fill="none" stroke="black" d="M704.257,-180.268C697.543,-204.714 685.207,-249.63 677.315,-278.366"/>
<polygon fill="black" stroke="black" points="673.9,-277.583 674.627,-288.153 680.65,-279.437 673.9,-277.583"/>
</g>
<!-- u24 -->
<g id="node13" class="node"><title>u24</title>
<ellipse fill="none" stroke="black" cx="659" cy="-738" rx="42.3701" ry="18"/>
<text text-anchor="middle" x="659" y="-734.3" font-family="Times,serif" font-size="14.00">FunDeps</text>
</g>
<!-- u23 -->
<g id="node14" class="node"><title>u23</title>
<ellipse fill="none" stroke="black" cx="894" cy="-450" rx="55.3436" ry="18"/>
<text text-anchor="middle" x="894" y="-446.3" font-family="Times,serif" font-size="14.00">TcCanonical</text>
</g>
<!-- u20 -->
<g id="node17" class="node"><title>u20</title>
<ellipse fill="none" stroke="black" cx="956" cy="-378" rx="50.0684" ry="18"/>
<text text-anchor="middle" x="956" y="-374.3" font-family="Times,serif" font-size="14.00">TcSMonad</text>
</g>
<!-- u23&#45;&gt;u20 -->
<g id="edge23" class="edge"><title>u23&#45;&gt;u20</title>
<path fill="none" stroke="black" d="M908.693,-432.411C916.414,-423.693 926.023,-412.845 934.559,-403.208"/>
<polygon fill="black" stroke="black" points="937.402,-405.276 941.412,-395.47 932.162,-400.635 937.402,-405.276"/>
</g>
<!-- u22 -->
<g id="node15" class="node"><title>u22</title>
<ellipse fill="none" stroke="black" cx="891" cy="-522" rx="46.1964" ry="18"/>
<text text-anchor="middle" x="891" y="-518.3" font-family="Times,serif" font-size="14.00">TcInteract</text>
</g>
<!-- u22&#45;&gt;u23 -->
<g id="edge22" class="edge"><title>u22&#45;&gt;u23</title>
<path fill="none" stroke="black" d="M891.742,-503.697C892.072,-495.983 892.469,-486.712 892.838,-478.112"/>
<polygon fill="black" stroke="black" points="896.335,-478.245 893.267,-468.104 889.342,-477.945 896.335,-478.245"/>
</g>
<!-- u6 -->
<g id="node31" class="node"><title>u6</title>
<ellipse fill="none" stroke="black" cx="200" cy="-306" rx="46.2191" ry="18"/>
<text text-anchor="middle" x="200" y="-302.3" font-family="Times,serif" font-size="14.00">TcMType</text>
</g>
<!-- u21&#45;&gt;u6 -->
<g id="edge21" class="edge"><title>u21&#45;&gt;u6</title>
<path fill="none" stroke="black" d="M227.828,-432.569C221.525,-422.465 214.111,-409.001 210,-396 203.642,-375.894 201.214,-352.113 200.336,-334.193"/>
<polygon fill="black" stroke="black" points="203.832,-334.003 199.975,-324.136 196.836,-334.255 203.832,-334.003"/>
</g>
<!-- u10 -->
<g id="node27" class="node"><title>u10</title>
<ellipse fill="none" stroke="black" cx="894" cy="-306" rx="27" ry="18"/>
<text text-anchor="middle" x="894" y="-302.3" font-family="Times,serif" font-size="14.00">Inst</text>
</g>
<!-- u20&#45;&gt;u10 -->
<g id="edge20" class="edge"><title>u20&#45;&gt;u10</title>
<path fill="none" stroke="black" d="M941.307,-360.411C933.169,-351.223 922.936,-339.67 914.07,-329.66"/>
<polygon fill="black" stroke="black" points="916.57,-327.204 907.32,-322.038 911.33,-331.845 916.57,-327.204"/>
</g>
<!-- u19 -->
<g id="node18" class="node"><title>u19</title>
<ellipse fill="none" stroke="black" cx="831" cy="-378" rx="42.3701" ry="18"/>
<text text-anchor="middle" x="831" y="-374.3" font-family="Times,serif" font-size="14.00">TcErrors</text>
</g>
<!-- u19&#45;&gt;u10 -->
<g id="edge19" class="edge"><title>u19&#45;&gt;u10</title>
<path fill="none" stroke="black" d="M845.612,-360.765C854.07,-351.367 864.834,-339.406 874.062,-329.154"/>
<polygon fill="black" stroke="black" points="876.667,-331.491 880.755,-321.717 871.464,-326.809 876.667,-331.491"/>
</g>
<!-- u18&#45;&gt;u22 -->
<g id="edge18" class="edge"><title>u18&#45;&gt;u22</title>
<path fill="none" stroke="black" d="M880.461,-575.697C882.003,-567.983 883.858,-558.712 885.578,-550.112"/>
<polygon fill="black" stroke="black" points="889.05,-550.597 887.579,-540.104 882.186,-549.224 889.05,-550.597"/>
</g>
<!-- u17 -->
<g id="node20" class="node"><title>u17</title>
<ellipse fill="none" stroke="black" cx="1101" cy="-666" rx="44.271" ry="18"/>
<text text-anchor="middle" x="1101" y="-662.3" font-family="Times,serif" font-size="14.00">TcPatSyn</text>
</g>
<!-- u17&#45;&gt;u18 -->
<g id="edge17" class="edge"><title>u17&#45;&gt;u18</title>
<path fill="none" stroke="black" d="M1066.98,-654.369C1028.71,-642.411 966.343,-622.92 923.573,-609.554"/>
<polygon fill="black" stroke="black" points="924.544,-606.191 913.956,-606.549 922.457,-612.872 924.544,-606.191"/>
</g>
<!-- u16&#45;&gt;u11 -->
<g id="edge16" class="edge"><title>u16&#45;&gt;u11</title>
<path fill="none" stroke="black" d="M686.576,-290.496C697.689,-280.772 712.526,-267.79 725.055,-256.827"/>
<polygon fill="black" stroke="black" points="727.672,-259.188 732.893,-249.968 723.063,-253.919 727.672,-259.188"/>
</g>
<!-- u15 -->
<g id="node22" class="node"><title>u15</title>
<ellipse fill="none" stroke="black" cx="663" cy="-378" rx="50.0684" ry="18"/>
<text text-anchor="middle" x="663" y="-374.3" font-family="Times,serif" font-size="14.00">TcMatches</text>
</g>
<!-- u15&#45;&gt;u16 -->
<g id="edge15" class="edge"><title>u15&#45;&gt;u16</title>
<path fill="none" stroke="black" d="M664.73,-359.697C665.502,-351.983 666.429,-342.712 667.289,-334.112"/>
<polygon fill="black" stroke="black" points="670.777,-334.403 668.29,-324.104 663.812,-333.706 670.777,-334.403"/>
</g>
<!-- u14 -->
<g id="node23" class="node"><title>u14</title>
<ellipse fill="none" stroke="black" cx="607" cy="-666" rx="39.9464" ry="18"/>
<text text-anchor="middle" x="607" y="-662.3" font-family="Times,serif" font-size="14.00">TcBinds</text>
</g>
<!-- u14&#45;&gt;u18 -->
<g id="edge14" class="edge"><title>u14&#45;&gt;u18</title>
<path fill="none" stroke="black" d="M640.328,-655.921C649.901,-653.336 660.358,-650.535 670,-648 723.475,-633.94 784.852,-618.286 826.802,-607.66"/>
<polygon fill="black" stroke="black" points="827.667,-611.051 836.502,-605.205 825.949,-604.265 827.667,-611.051"/>
</g>
<!-- u13 -->
<g id="node24" class="node"><title>u13</title>
<ellipse fill="none" stroke="black" cx="263" cy="-378" rx="43.319" ry="18"/>
<text text-anchor="middle" x="263" y="-374.3" font-family="Times,serif" font-size="14.00">TcHsSyn</text>
</g>
<!-- u13&#45;&gt;u6 -->
<g id="edge13" class="edge"><title>u13&#45;&gt;u6</title>
<path fill="none" stroke="black" d="M248.388,-360.765C240.357,-351.841 230.247,-340.608 221.347,-330.719"/>
<polygon fill="black" stroke="black" points="223.824,-328.239 214.533,-323.147 218.621,-332.922 223.824,-328.239"/>
</g>
<!-- u12 -->
<g id="node25" class="node"><title>u12</title>
<ellipse fill="none" stroke="black" cx="79" cy="-306" rx="42.3701" ry="18"/>
<text text-anchor="middle" x="79" y="-302.3" font-family="Times,serif" font-size="14.00">TcSplice</text>
</g>
<!-- u12&#45;&gt;u1 -->
<g id="edge12" class="edge"><title>u12&#45;&gt;u1</title>
<path fill="none" stroke="black" d="M79,-287.697C79,-279.983 79,-270.712 79,-262.112"/>
<polygon fill="black" stroke="black" points="82.5001,-262.104 79,-252.104 75.5001,-262.104 82.5001,-262.104"/>
</g>
<!-- u11&#45;&gt;u25 -->
<g id="edge11" class="edge"><title>u11&#45;&gt;u25</title>
<path fill="none" stroke="black" d="M740.284,-216.411C735.453,-208.163 729.505,-198.009 724.098,-188.777"/>
<polygon fill="black" stroke="black" points="727.006,-186.816 718.931,-179.956 720.965,-190.354 727.006,-186.816"/>
</g>
<!-- u10&#45;&gt;u11 -->
<g id="edge10" class="edge"><title>u10&#45;&gt;u11</title>
<path fill="none" stroke="black" d="M872.752,-294.671C849.518,-283.377 811.937,-265.108 784.47,-251.756"/>
<polygon fill="black" stroke="black" points="785.741,-248.482 775.217,-247.258 782.68,-254.778 785.741,-248.482"/>
</g>
<!-- u9 -->
<g id="node28" class="node"><title>u9</title>
<ellipse fill="none" stroke="black" cx="1079" cy="-378" rx="39.9464" ry="18"/>
<text text-anchor="middle" x="1079" y="-374.3" font-family="Times,serif" font-size="14.00">TcUnify</text>
</g>
<!-- u9&#45;&gt;u10 -->
<g id="edge9" class="edge"><title>u9&#45;&gt;u10</title>
<path fill="none" stroke="black" d="M1049.28,-365.753C1015.72,-353.055 961.284,-332.459 926.588,-319.331"/>
<polygon fill="black" stroke="black" points="927.521,-315.942 916.93,-315.676 925.044,-322.489 927.521,-315.942"/>
</g>
<!-- u8 -->
<g id="node29" class="node"><title>u8</title>
<ellipse fill="none" stroke="black" cx="728" cy="-666" rx="48.6179" ry="18"/>
<text text-anchor="middle" x="728" y="-662.3" font-family="Times,serif" font-size="14.00">TcValidity</text>
</g>
<!-- u8&#45;&gt;u18 -->
<g id="edge8" class="edge"><title>u8&#45;&gt;u18</title>
<path fill="none" stroke="black" d="M756.729,-651.503C779.899,-640.618 812.714,-625.201 838.216,-613.221"/>
<polygon fill="black" stroke="black" points="840.033,-616.234 847.596,-608.814 837.057,-609.898 840.033,-616.234"/>
</g>
<!-- u7 -->
<g id="node30" class="node"><title>u7</title>
<ellipse fill="none" stroke="black" cx="1079" cy="-450" rx="48.1437" ry="18"/>
<text text-anchor="middle" x="1079" y="-446.3" font-family="Times,serif" font-size="14.00">TcHsType</text>
</g>
<!-- u7&#45;&gt;u9 -->
<g id="edge7" class="edge"><title>u7&#45;&gt;u9</title>
<path fill="none" stroke="black" d="M1079,-431.697C1079,-423.983 1079,-414.712 1079,-406.112"/>
<polygon fill="black" stroke="black" points="1082.5,-406.104 1079,-396.104 1075.5,-406.104 1082.5,-406.104"/>
</g>
<!-- u6&#45;&gt;u1 -->
<g id="edge6" class="edge"><title>u6&#45;&gt;u1</title>
<path fill="none" stroke="black" d="M175.222,-290.666C157.474,-280.398 133.337,-266.435 113.678,-255.062"/>
<polygon fill="black" stroke="black" points="115.408,-252.019 104.999,-250.041 111.903,-258.078 115.408,-252.019"/>
</g>
<!-- u5&#45;&gt;u6 -->
<g id="edge5" class="edge"><title>u5&#45;&gt;u6</title>
<path fill="none" stroke="black" d="M129.441,-362.496C141.869,-352.721 158.484,-339.653 172.469,-328.653"/>
<polygon fill="black" stroke="black" points="174.652,-331.39 180.348,-322.457 170.324,-325.888 174.652,-331.39"/>
</g>
<!-- u4 -->
<g id="node33" class="node"><title>u4</title>
<ellipse fill="none" stroke="black" cx="79" cy="-18" rx="38.0212" ry="18"/>
<text text-anchor="middle" x="79" y="-14.3" font-family="Times,serif" font-size="14.00">TcType</text>
</g>
<!-- u3 -->
<g id="node34" class="node"><title>u3</title>
<ellipse fill="none" stroke="black" cx="79" cy="-90" rx="52.4675" ry="18"/>
<text text-anchor="middle" x="79" y="-86.3" font-family="Times,serif" font-size="14.00">TcEvidence</text>
</g>
<!-- u3&#45;&gt;u4 -->
<g id="edge4" class="edge"><title>u3&#45;&gt;u4</title>
<path fill="none" stroke="black" d="M79,-71.6966C79,-63.9827 79,-54.7125 79,-46.1124"/>
<polygon fill="black" stroke="black" points="82.5001,-46.1043 79,-36.1043 75.5001,-46.1044 82.5001,-46.1043"/>
</g>
<!-- u2 -->
<g id="node35" class="node"><title>u2</title>
<ellipse fill="none" stroke="black" cx="79" cy="-162" rx="51.4931" ry="18"/>
<text text-anchor="middle" x="79" y="-158.3" font-family="Times,serif" font-size="14.00">TcRnTypes</text>
</g>
<!-- u2&#45;&gt;u3 -->
<g id="edge3" class="edge"><title>u2&#45;&gt;u3</title>
<path fill="none" stroke="black" d="M79,-143.697C79,-135.983 79,-126.712 79,-118.112"/>
<polygon fill="black" stroke="black" points="82.5001,-118.104 79,-108.104 75.5001,-118.104 82.5001,-118.104"/>
</g>
<!-- u1&#45;&gt;u2 -->
<g id="edge2" class="edge"><title>u1&#45;&gt;u2</title>
<path fill="none" stroke="black" d="M79,-215.697C79,-207.983 79,-198.712 79,-190.112"/>
<polygon fill="black" stroke="black" points="82.5001,-190.104 79,-180.104 75.5001,-190.104 82.5001,-190.104"/>
</g>
<!-- u0&#45;&gt;u18 -->
<g id="edge1" class="edge"><title>u0&#45;&gt;u18</title>
<path fill="none" stroke="black" d="M950.916,-649.465C937.756,-639.768 920.629,-627.148 906.176,-616.498"/>
<polygon fill="black" stroke="black" points="908.151,-613.606 898.025,-610.492 903.999,-619.242 908.151,-613.606"/>
</g>
</g>
</svg>
